<?xml version="1.0" encoding="utf-8"?>
<!-- Generator: Adobe Illustrator 16.0.0, SVG Export Plug-In . SVG Version: 6.00 Build 0)  -->
<!DOCTYPE svg PUBLIC "-//W3C//DTD SVG 1.1//EN" "http://www.w3.org/Graphics/SVG/1.1/DTD/svg11.dtd">
<svg version="1.1" id="Capa_1" xmlns="http://www.w3.org/2000/svg" xmlns:xlink="http://www.w3.org/1999/xlink" x="0px" y="0px"
	 width="223px" height="52px" viewBox="0 0 223 52" style="enable-background:new 0 0 223 52;" xml:space="preserve">
<g>
	<linearGradient id="SVGID_1_" gradientUnits="userSpaceOnUse" x1="0.1172" y1="26" x2="222.8828" y2="26">
		<stop  offset="0" style="stop-color:#9D9D9D"/>
		<stop  offset="0.3501" style="stop-color:#FFFFFF"/>
		<stop  offset="0.5733" style="stop-color:#B5B5B4"/>
		<stop  offset="0.7716" style="stop-color:#E3E3E3"/>
		<stop  offset="1" style="stop-color:#9D9D9D"/>
	</linearGradient>
	<path style="fill:url(#SVGID_1_);" d="M196,51.9H27c-14.8,0-26.9-11.4-26.9-25.3v-1.2c0-14,12.1-25.3,26.9-25.3h169
		c14.8,0,26.9,11.4,26.9,25.3v1.2C222.9,40.6,210.8,51.9,196,51.9z"/>
	<path style="fill:#1B3E90;" d="M27,4.6h169c12.4,0,22.4,9.3,22.4,20.8v1.2c0,11.5-10,20.8-22.4,20.8H27c-12.4,0-22.4-9.3-22.4-20.8
		v-1.2C4.6,13.9,14.6,4.6,27,4.6"/>
	<polygon style="fill:#FFFFFF;" points="48.9,43.2 48.9,38.2 47,38.2 47,37.2 52.1,37.2 52.1,38.2 50.2,38.2 50.2,43.2 	"/>
	<path style="fill:#FFFFFF;" d="M53.9,40.2c0,0.7,0.2,1.2,0.5,1.6c0.3,0.4,0.8,0.5,1.3,0.5c0.5,0,0.9-0.2,1.3-0.5
		c0.3-0.4,0.5-0.9,0.5-1.6c0-0.7-0.2-1.2-0.5-1.6c-0.3-0.3-0.8-0.5-1.3-0.5c-0.5,0-1,0.2-1.3,0.5C54.1,39,53.9,39.5,53.9,40.2
		 M52.6,40.2c0-0.6,0.1-1.1,0.3-1.5c0.1-0.3,0.3-0.6,0.6-0.8c0.3-0.3,0.5-0.4,0.8-0.5c0.4-0.2,0.9-0.2,1.4-0.2
		c0.9,0,1.7,0.3,2.3,0.8c0.6,0.6,0.9,1.3,0.9,2.3c0,1-0.3,1.7-0.8,2.3c-0.6,0.5-1.3,0.8-2.3,0.8c-0.9,0-1.7-0.3-2.3-0.8
		C52.8,41.9,52.6,41.2,52.6,40.2"/>
	<path style="fill:#FFFFFF;" d="M61.1,38.2v4h1c0.4,0,0.6,0,0.8-0.1c0.2,0,0.4-0.1,0.5-0.2c0.1-0.1,0.2-0.3,0.3-0.6
		c0.1-0.3,0.1-0.6,0.1-1.1s0-0.8-0.1-1.1c-0.1-0.3-0.2-0.4-0.4-0.6c-0.2-0.1-0.4-0.2-0.6-0.3c-0.2,0-0.5-0.1-1.1-0.1H61.1z
		 M59.8,37.2h2.4c0.5,0,0.9,0,1.2,0.1c0.4,0.1,0.7,0.3,1,0.6c0.3,0.3,0.5,0.6,0.6,1c0.1,0.4,0.2,0.9,0.2,1.4c0,0.5-0.1,0.9-0.2,1.3
		c-0.2,0.4-0.4,0.8-0.7,1.1c-0.2,0.2-0.5,0.4-0.9,0.5c-0.3,0.1-0.7,0.1-1.2,0.1h-2.4V37.2z"/>
	<path style="fill:#FFFFFF;" d="M67.4,40.2c0,0.7,0.2,1.2,0.5,1.6c0.3,0.4,0.8,0.5,1.3,0.5c0.5,0,1-0.2,1.3-0.5
		c0.3-0.4,0.5-0.9,0.5-1.6c0-0.7-0.2-1.2-0.5-1.6c-0.3-0.3-0.8-0.5-1.3-0.5c-0.5,0-1,0.2-1.3,0.5C67.6,39,67.4,39.5,67.4,40.2
		 M66.1,40.2c0-0.6,0.1-1.1,0.3-1.5c0.1-0.3,0.3-0.6,0.6-0.8c0.3-0.3,0.5-0.4,0.8-0.5c0.4-0.2,0.9-0.2,1.4-0.2c1,0,1.7,0.3,2.3,0.8
		c0.6,0.6,0.8,1.3,0.8,2.3c0,1-0.3,1.7-0.8,2.3c-0.6,0.5-1.3,0.8-2.3,0.8c-1,0-1.7-0.3-2.3-0.8C66.4,41.9,66.1,41.2,66.1,40.2"/>
	<polygon style="fill:#FFFFFF;" points="75.9,43.2 75.9,37.2 80.6,37.2 80.6,38.2 77.2,38.2 77.2,39.5 80.4,39.5 80.4,40.5 
		77.2,40.5 77.2,42.2 80.7,42.2 80.7,43.2 	"/>
	<polygon style="fill:#FFFFFF;" points="81.9,43.2 81.9,37.2 83.1,37.2 85.8,41.2 85.8,37.2 87,37.2 87,43.2 85.7,43.2 83.1,39.2 
		83.1,43.2 	"/>
	<path style="fill:#FFFFFF;" d="M94,40.8l-0.9-2.2l-0.9,2.2H94z M96.4,43.2H95l-0.6-1.4h-2.6l-0.5,1.4h-1.4l2.5-6h1.4L96.4,43.2z"/>
	<polygon style="fill:#FFFFFF;" points="97.2,43.2 97.2,37.2 98.5,37.2 98.5,42.2 101.7,42.2 101.7,43.2 	"/>
	<path style="fill:#FFFFFF;" d="M102.6,37.2h1.3v3.3c0,0.5,0,0.9,0,1c0.1,0.2,0.2,0.4,0.4,0.6c0.2,0.1,0.5,0.2,0.9,0.2
		c0.4,0,0.6-0.1,0.8-0.2c0.2-0.1,0.3-0.3,0.3-0.5c0-0.2,0.1-0.5,0.1-1v-3.3h1.3v3.2c0,0.7,0,1.2-0.1,1.5c-0.1,0.3-0.2,0.6-0.4,0.8
		c-0.2,0.2-0.4,0.4-0.8,0.5c-0.3,0.1-0.7,0.2-1.2,0.2c-0.6,0-1.1-0.1-1.4-0.2c-0.3-0.1-0.6-0.3-0.7-0.5c-0.2-0.2-0.3-0.4-0.4-0.7
		c-0.1-0.4-0.1-0.9-0.1-1.5V37.2z"/>
	<polygon style="fill:#FFFFFF;" points="109.1,43.2 109.1,37.2 111.1,37.2 112.2,41.3 113.4,37.2 115.3,37.2 115.3,43.2 114.1,43.2 
		114.1,38.4 112.8,43.2 111.6,43.2 110.3,38.4 110.3,43.2 	"/>
	<rect x="116.6" y="37.2" style="fill:#FFFFFF;" width="1.3" height="6"/>
	<polygon style="fill:#FFFFFF;" points="119.2,43.2 119.2,37.2 120.4,37.2 123.1,41.2 123.1,37.2 124.3,37.2 124.3,43.2 123,43.2 
		120.4,39.2 120.4,43.2 	"/>
	<rect x="125.6" y="37.2" style="fill:#FFFFFF;" width="1.3" height="6"/>
	<path style="fill:#FFFFFF;" d="M129.3,40.2c0,0.7,0.2,1.2,0.5,1.6c0.3,0.4,0.8,0.5,1.3,0.5c0.5,0,0.9-0.2,1.3-0.5
		c0.3-0.4,0.5-0.9,0.5-1.6c0-0.7-0.2-1.2-0.5-1.6c-0.3-0.3-0.7-0.5-1.3-0.5c-0.5,0-1,0.2-1.3,0.5C129.4,39,129.3,39.5,129.3,40.2
		 M127.9,40.2c0-0.6,0.1-1.1,0.3-1.5c0.1-0.3,0.3-0.6,0.6-0.8c0.2-0.3,0.5-0.4,0.8-0.5c0.4-0.2,0.9-0.2,1.4-0.2
		c0.9,0,1.7,0.3,2.3,0.8c0.6,0.6,0.9,1.3,0.9,2.3c0,1-0.3,1.7-0.9,2.3c-0.6,0.5-1.3,0.8-2.3,0.8c-1,0-1.7-0.3-2.3-0.8
		C128.2,41.9,127.9,41.2,127.9,40.2"/>
	<polygon style="fill:#FFFFFF;" points="139.3,43.2 139.3,40.7 136.9,37.2 138.4,37.2 140,39.5 141.4,37.2 142.9,37.2 140.6,40.7 
		140.6,43.2 	"/>
	<polygon style="fill:#FFFFFF;" points="147.6,43.2 145.3,37.2 146.7,37.2 148.4,41.6 149.9,37.2 151.3,37.2 149,43.2 	"/>
	<rect x="151.9" y="37.2" style="fill:#FFFFFF;" width="1.3" height="6"/>
	<path style="fill:#FFFFFF;" d="M155.8,38.2v4h1c0.4,0,0.6,0,0.8-0.1c0.2,0,0.4-0.1,0.5-0.2c0.1-0.1,0.3-0.3,0.3-0.6
		c0.1-0.3,0.1-0.6,0.1-1.1s0-0.8-0.1-1.1c-0.1-0.3-0.2-0.4-0.4-0.6c-0.1-0.1-0.4-0.2-0.6-0.3c-0.2,0-0.5-0.1-1.1-0.1H155.8z
		 M154.5,37.2h2.4c0.5,0,0.9,0,1.2,0.1c0.4,0.1,0.7,0.3,1,0.6c0.3,0.3,0.5,0.6,0.6,1c0.1,0.4,0.2,0.9,0.2,1.4c0,0.5-0.1,0.9-0.2,1.3
		c-0.2,0.4-0.4,0.8-0.7,1.1c-0.2,0.2-0.5,0.4-0.9,0.5c-0.3,0.1-0.7,0.1-1.1,0.1h-2.4V37.2z"/>
	<path style="fill:#FFFFFF;" d="M162.3,39.7h1c0.6,0,1,0,1.2-0.1c0.2-0.1,0.3-0.1,0.4-0.3c0.1-0.1,0.1-0.3,0.1-0.5
		c0-0.2-0.1-0.4-0.2-0.5c-0.1-0.1-0.3-0.2-0.5-0.2c-0.1,0-0.4,0-0.9,0h-1V39.7z M161,43.2v-6h2.7c0.7,0,1.2,0.1,1.5,0.2
		c0.3,0.1,0.6,0.3,0.7,0.6c0.2,0.3,0.3,0.6,0.3,1c0,0.5-0.1,0.8-0.4,1.1c-0.3,0.3-0.7,0.5-1.3,0.6c0.3,0.2,0.5,0.3,0.7,0.5
		c0.2,0.2,0.4,0.5,0.7,1l0.8,1.2h-1.5l-0.9-1.3c-0.3-0.5-0.6-0.8-0.7-0.9c-0.1-0.1-0.3-0.2-0.4-0.2c-0.1,0-0.4-0.1-0.7-0.1h-0.3v2.5
		H161z"/>
	<rect x="167.5" y="37.2" style="fill:#FFFFFF;" width="1.3" height="6"/>
	<path style="fill:#FFFFFF;" d="M171.1,40.2c0,0.7,0.2,1.2,0.5,1.6c0.3,0.4,0.8,0.5,1.3,0.5s0.9-0.2,1.3-0.5
		c0.3-0.4,0.5-0.9,0.5-1.6c0-0.7-0.2-1.2-0.5-1.6c-0.3-0.3-0.8-0.5-1.3-0.5c-0.5,0-1,0.2-1.3,0.5C171.3,39,171.1,39.5,171.1,40.2
		 M169.8,40.2c0-0.6,0.1-1.1,0.3-1.5c0.1-0.3,0.4-0.6,0.6-0.8c0.3-0.3,0.5-0.4,0.8-0.5c0.4-0.2,0.9-0.2,1.4-0.2
		c0.9,0,1.7,0.3,2.3,0.8c0.6,0.6,0.9,1.3,0.9,2.3c0,1-0.3,1.7-0.8,2.3c-0.6,0.5-1.3,0.8-2.3,0.8c-1,0-1.7-0.3-2.3-0.8
		C170.1,41.9,169.8,41.2,169.8,40.2"/>
	<path style="fill:#FFFFFF;" d="M152.8,8.8h14.5c5.2,0,9.3,3.9,9.3,8.7v8c0,4.8-4.2,8.7-9.3,8.7h-14.5c-5.2,0-9.3-3.9-9.3-8.7v-8
		C143.5,12.6,147.7,8.8,152.8,8.8 M164.3,18.2H157v6.4h7.3V18.2z"/>
	<rect x="46.3" y="8.8" style="fill:#FFFFFF;" width="13.7" height="25.4"/>
	<path style="fill:#FFFFFF;" d="M65.5,8.8h23.1c0,0,5.6-0.5,7.6,1.6C98,12,98,16.1,98,16.1v18.1H85.3V18.2h-6.6v15.9H65.5V8.8z"/>
	<rect x="46.3" y="8.8" style="fill:#FFFFFF;" width="13.7" height="25.4"/>
	<path style="fill:#FFFFFF;" d="M114,8.8h14.5c5.2,0,9.3,3.9,9.3,8.7v3.8h-13v-3.1h-7.3v6.4h7.3v-1.9h13v2.8c0,4.8-4.2,8.7-9.3,8.7
		H114c-5.2,0-9.3-3.9-9.3-8.7v-8C104.7,12.6,108.8,8.8,114,8.8"/>
	<g>
		<path style="fill:#FFFFFF;" d="M34.2,14.9c-4.1,0-7.4,3.1-7.4,6.9c0,3.8,3.3,6.9,7.4,6.9c4.1,0,7.4-3.1,7.4-6.9
			C41.6,18,38.3,14.9,34.2,14.9z M34.2,25.8c-0.6,0-1.2-0.1-1.8-0.4l5.8-5.2c0.2,0.5,0.4,1,0.4,1.6C38.6,24,36.6,25.8,34.2,25.8z
			 M34.2,17.8c0.6,0,1.2,0.1,1.8,0.4l-5.8,5.2c-0.2-0.5-0.4-1-0.4-1.6C29.8,19.6,31.8,17.8,34.2,17.8z"/>
		<path style="fill:#FFFFFF;" d="M194.8,17.3c-1.2-1.5-3-2.6-5-2.8c-0.3,0-0.6-0.1-1-0.1c-3.7,0-6.8,2.6-7.3,6
			c-0.2,1.8,0.2,3.5,1.3,5c1.2,1.5,3,2.6,5,2.8c0.3,0,0.6,0.1,0.9,0.1c3.7,0,6.8-2.6,7.3-6C196.3,20.6,195.9,18.8,194.8,17.3z
			 M187.5,17.6c0.6-0.2,1.2-0.2,1.9-0.1c1.2,0.2,2.3,0.8,3,1.7c0.6,0.8,0.9,1.8,0.7,2.8c-0.1,0.6-0.3,1.1-0.6,1.6L187.5,17.6z
			 M190.1,25.2c-0.6,0.2-1.2,0.2-1.9,0.1c-1.2-0.1-2.3-0.8-3-1.7c-0.6-0.8-0.9-1.8-0.8-2.8c0.1-0.6,0.3-1.1,0.6-1.6L190.1,25.2z"/>
	</g>
	<path style="fill:#1B3E90;" d="M51.5,14.9c0.1-0.2,0.3-0.3,0.5-0.3c0.3,0,0.6,0.2,0.6,0.5c0,0.3-0.3,0.5-0.6,0.5
		c-0.2,0-0.4-0.1-0.5-0.3V14.9z M51.5,16.6c0.1-0.2,0.3-0.3,0.5-0.3c0.3,0,0.6,0.2,0.6,0.5c0,0.3-0.3,0.5-0.6,0.5
		c-0.2,0-0.4-0.1-0.5-0.3V16.6z M51.5,18.4c0.1-0.2,0.3-0.3,0.5-0.3c0.3,0,0.6,0.2,0.6,0.5c0,0.3-0.3,0.5-0.6,0.5
		c-0.2,0-0.4-0.1-0.5-0.3V18.4z M51.5,20.1c0.1-0.2,0.3-0.3,0.5-0.3c0.3,0,0.6,0.2,0.6,0.5c0,0.3-0.3,0.5-0.6,0.5
		c-0.2,0-0.4-0.1-0.5-0.3V20.1z M51.5,21.9c0.1-0.2,0.3-0.3,0.5-0.3c0.3,0,0.6,0.2,0.6,0.5c0,0.3-0.3,0.5-0.6,0.5
		c-0.2,0-0.4-0.1-0.5-0.3V21.9z M51.5,23.7c0.1-0.2,0.3-0.3,0.5-0.3c0.3,0,0.6,0.2,0.6,0.5c0,0.3-0.3,0.5-0.6,0.5
		c-0.2,0-0.4-0.1-0.5-0.3V23.7z M51.5,25.4c0.1-0.2,0.3-0.3,0.5-0.3c0.3,0,0.6,0.2,0.6,0.5c0,0.3-0.3,0.5-0.6,0.5
		c-0.2,0-0.4-0.1-0.5-0.3V25.4z M51.5,27.2c0.1-0.2,0.3-0.3,0.5-0.3c0.3,0,0.6,0.2,0.6,0.5c0,0.3-0.3,0.5-0.6,0.5
		c-0.2,0-0.4-0.1-0.5-0.3V27.2z M51.5,28.9c0.1-0.2,0.3-0.3,0.5-0.3c0.3,0,0.6,0.2,0.6,0.5c0,0.3-0.3,0.5-0.6,0.5
		c-0.2,0-0.4-0.1-0.5-0.3V28.9z M51.5,30.7c0.1-0.2,0.3-0.3,0.5-0.3c0.3,0,0.6,0.2,0.6,0.5c0,0.3-0.3,0.5-0.6,0.5
		c-0.2,0-0.4-0.1-0.5-0.3V30.7z M51.5,32.4c0.1-0.2,0.3-0.3,0.5-0.3c0.3,0,0.6,0.2,0.6,0.5c0,0.3-0.3,0.5-0.6,0.5
		c-0.2,0-0.4-0.1-0.5-0.3V32.4z M51.5,34.1c0.1-0.1,0.3-0.2,0.5-0.2c0.2,0,0.4,0.1,0.5,0.2H51.5z M54.5,13.4c0-0.1,0-0.1,0-0.2h1.1
		c0,0,0,0.1,0,0.2c0,0.3-0.3,0.5-0.6,0.5C54.8,13.9,54.5,13.7,54.5,13.4 M54.5,15.1c0-0.3,0.3-0.5,0.6-0.5c0.3,0,0.6,0.2,0.6,0.5
		c0,0.3-0.3,0.5-0.6,0.5C54.8,15.7,54.5,15.4,54.5,15.1 M54.5,16.9c0-0.3,0.3-0.5,0.6-0.5c0.3,0,0.6,0.2,0.6,0.5
		c0,0.3-0.3,0.5-0.6,0.5C54.8,17.4,54.5,17.2,54.5,16.9 M54.5,18.6c0-0.3,0.3-0.5,0.6-0.5c0.3,0,0.6,0.2,0.6,0.5
		c0,0.3-0.3,0.5-0.6,0.5C54.8,19.2,54.5,18.9,54.5,18.6 M54.5,20.4c0-0.3,0.3-0.5,0.6-0.5c0.3,0,0.6,0.2,0.6,0.5
		c0,0.3-0.3,0.5-0.6,0.5C54.8,20.9,54.5,20.7,54.5,20.4 M54.5,22.2c0-0.3,0.3-0.5,0.6-0.5c0.3,0,0.6,0.2,0.6,0.5
		c0,0.3-0.3,0.5-0.6,0.5C54.8,22.7,54.5,22.5,54.5,22.2 M54.5,23.9c0-0.3,0.3-0.5,0.6-0.5c0.3,0,0.6,0.2,0.6,0.5
		c0,0.3-0.3,0.5-0.6,0.5C54.8,24.4,54.5,24.2,54.5,23.9 M54.5,25.7c0-0.3,0.3-0.5,0.6-0.5c0.3,0,0.6,0.2,0.6,0.5
		c0,0.3-0.3,0.5-0.6,0.5C54.8,26.2,54.5,26,54.5,25.7 M54.5,27.4c0-0.3,0.3-0.5,0.6-0.5c0.3,0,0.6,0.2,0.6,0.5
		c0,0.3-0.3,0.5-0.6,0.5C54.8,27.9,54.5,27.7,54.5,27.4 M54.5,29.2c0-0.3,0.3-0.5,0.6-0.5c0.3,0,0.6,0.2,0.6,0.5
		c0,0.3-0.3,0.5-0.6,0.5C54.8,29.7,54.5,29.5,54.5,29.2 M54.5,30.9c0-0.3,0.3-0.5,0.6-0.5c0.3,0,0.6,0.2,0.6,0.5
		c0,0.3-0.3,0.5-0.6,0.5C54.8,31.5,54.5,31.2,54.5,30.9 M54.5,32.7c0-0.3,0.3-0.5,0.6-0.5c0.3,0,0.6,0.2,0.6,0.5
		c0,0.3-0.3,0.5-0.6,0.5C54.8,33.2,54.5,33,54.5,32.7 M54.6,34.1c0.1-0.1,0.3-0.2,0.5-0.2c0.2,0,0.4,0.1,0.5,0.2H54.6z M53,14.2
		c0-0.3,0.2-0.5,0.6-0.5c0.3,0,0.6,0.2,0.6,0.5c0,0.3-0.3,0.5-0.6,0.5C53.2,14.8,53,14.5,53,14.2 M53,16c0-0.3,0.2-0.5,0.6-0.5
		c0.3,0,0.6,0.2,0.6,0.5c0,0.3-0.3,0.5-0.6,0.5C53.2,16.5,53,16.3,53,16 M53,17.8c0-0.3,0.2-0.5,0.6-0.5c0.3,0,0.6,0.2,0.6,0.5
		c0,0.3-0.3,0.5-0.6,0.5C53.2,18.3,53,18.1,53,17.8 M53,19.5c0-0.3,0.2-0.5,0.6-0.5c0.3,0,0.6,0.2,0.6,0.5c0,0.3-0.3,0.5-0.6,0.5
		C53.2,20,53,19.8,53,19.5 M53,21.3c0-0.3,0.2-0.5,0.6-0.5c0.3,0,0.6,0.2,0.6,0.5c0,0.3-0.3,0.5-0.6,0.5C53.2,21.8,53,21.6,53,21.3
		 M53,23c0-0.3,0.2-0.5,0.6-0.5c0.3,0,0.6,0.2,0.6,0.5c0,0.3-0.3,0.5-0.6,0.5C53.2,23.6,53,23.3,53,23 M53,24.8
		c0-0.3,0.2-0.5,0.6-0.5c0.3,0,0.6,0.2,0.6,0.5c0,0.3-0.3,0.5-0.6,0.5C53.2,25.3,53,25.1,53,24.8 M53,26.5c0-0.3,0.2-0.5,0.6-0.5
		c0.3,0,0.6,0.2,0.6,0.5c0,0.3-0.3,0.5-0.6,0.5C53.2,27.1,53,26.8,53,26.5 M53,28.3c0-0.3,0.2-0.5,0.6-0.5c0.3,0,0.6,0.2,0.6,0.5
		c0,0.3-0.3,0.5-0.6,0.5C53.2,28.8,53,28.6,53,28.3 M53,30.1c0-0.3,0.2-0.5,0.6-0.5c0.3,0,0.6,0.2,0.6,0.5c0,0.3-0.3,0.5-0.6,0.5
		C53.2,30.6,53,30.3,53,30.1 M53,31.8c0-0.3,0.2-0.5,0.6-0.5c0.3,0,0.6,0.2,0.6,0.5c0,0.3-0.3,0.5-0.6,0.5
		C53.2,32.3,53,32.1,53,31.8 M53,33.6c0-0.3,0.2-0.5,0.6-0.5c0.3,0,0.6,0.2,0.6,0.5c0,0.3-0.3,0.5-0.6,0.5
		C53.2,34.1,53,33.9,53,33.6 M57.6,13.4c0-0.1,0-0.1,0-0.2h1.1c0,0,0,0.1,0,0.2c0,0.3-0.3,0.5-0.6,0.5
		C57.8,13.9,57.6,13.7,57.6,13.4 M57.6,15.1c0-0.3,0.3-0.5,0.6-0.5c0.3,0,0.6,0.2,0.6,0.5c0,0.3-0.3,0.5-0.6,0.5
		C57.8,15.7,57.6,15.4,57.6,15.1 M57.6,16.9c0-0.3,0.3-0.5,0.6-0.5c0.3,0,0.6,0.2,0.6,0.5c0,0.3-0.3,0.5-0.6,0.5
		C57.8,17.4,57.6,17.2,57.6,16.9 M57.6,18.6c0-0.3,0.3-0.5,0.6-0.5c0.3,0,0.6,0.2,0.6,0.5c0,0.3-0.3,0.5-0.6,0.5
		C57.8,19.2,57.6,18.9,57.6,18.6 M57.6,20.4c0-0.3,0.3-0.5,0.6-0.5c0.3,0,0.6,0.2,0.6,0.5c0,0.3-0.3,0.5-0.6,0.5
		C57.8,20.9,57.6,20.7,57.6,20.4 M57.6,22.2c0-0.3,0.3-0.5,0.6-0.5c0.3,0,0.6,0.2,0.6,0.5c0,0.3-0.3,0.5-0.6,0.5
		C57.8,22.7,57.6,22.5,57.6,22.2 M57.6,23.9c0-0.3,0.3-0.5,0.6-0.5c0.3,0,0.6,0.2,0.6,0.5c0,0.3-0.3,0.5-0.6,0.5
		C57.8,24.4,57.6,24.2,57.6,23.9 M57.6,25.7c0-0.3,0.3-0.5,0.6-0.5c0.3,0,0.6,0.2,0.6,0.5c0,0.3-0.3,0.5-0.6,0.5
		C57.8,26.2,57.6,26,57.6,25.7 M57.6,27.4c0-0.3,0.3-0.5,0.6-0.5c0.3,0,0.6,0.2,0.6,0.5c0,0.3-0.3,0.5-0.6,0.5
		C57.8,27.9,57.6,27.7,57.6,27.4 M57.6,29.2c0-0.3,0.3-0.5,0.6-0.5c0.3,0,0.6,0.2,0.6,0.5c0,0.3-0.3,0.5-0.6,0.5
		C57.8,29.7,57.6,29.5,57.6,29.2 M57.6,30.9c0-0.3,0.3-0.5,0.6-0.5c0.3,0,0.6,0.2,0.6,0.5c0,0.3-0.3,0.5-0.6,0.5
		C57.8,31.5,57.6,31.2,57.6,30.9 M57.6,32.7c0-0.3,0.3-0.5,0.6-0.5c0.3,0,0.6,0.2,0.6,0.5c0,0.3-0.3,0.5-0.6,0.5
		C57.8,33.2,57.6,33,57.6,32.7 M57.7,34.1c0.1-0.1,0.3-0.2,0.5-0.2c0.2,0,0.4,0.1,0.5,0.2H57.7z M56,14.2c0-0.3,0.3-0.5,0.6-0.5
		c0.3,0,0.6,0.2,0.6,0.5c0,0.3-0.3,0.5-0.6,0.5C56.3,14.8,56,14.5,56,14.2 M56,16c0-0.3,0.3-0.5,0.6-0.5c0.3,0,0.6,0.2,0.6,0.5
		c0,0.3-0.3,0.5-0.6,0.5C56.3,16.5,56,16.3,56,16 M56,17.8c0-0.3,0.3-0.5,0.6-0.5c0.3,0,0.6,0.2,0.6,0.5c0,0.3-0.3,0.5-0.6,0.5
		C56.3,18.3,56,18.1,56,17.8 M56,19.5c0-0.3,0.3-0.5,0.6-0.5c0.3,0,0.6,0.2,0.6,0.5c0,0.3-0.3,0.5-0.6,0.5C56.3,20,56,19.8,56,19.5
		 M56,21.3c0-0.3,0.3-0.5,0.6-0.5c0.3,0,0.6,0.2,0.6,0.5c0,0.3-0.3,0.5-0.6,0.5C56.3,21.8,56,21.6,56,21.3 M56,23
		c0-0.3,0.3-0.5,0.6-0.5c0.3,0,0.6,0.2,0.6,0.5c0,0.3-0.3,0.5-0.6,0.5C56.3,23.6,56,23.3,56,23 M56,24.8c0-0.3,0.3-0.5,0.6-0.5
		c0.3,0,0.6,0.2,0.6,0.5c0,0.3-0.3,0.5-0.6,0.5C56.3,25.3,56,25.1,56,24.8 M56,26.5c0-0.3,0.3-0.5,0.6-0.5c0.3,0,0.6,0.2,0.6,0.5
		c0,0.3-0.3,0.5-0.6,0.5C56.3,27.1,56,26.8,56,26.5 M56,28.3c0-0.3,0.3-0.5,0.6-0.5c0.3,0,0.6,0.2,0.6,0.5c0,0.3-0.3,0.5-0.6,0.5
		C56.3,28.8,56,28.6,56,28.3 M56,30.1c0-0.3,0.3-0.5,0.6-0.5c0.3,0,0.6,0.2,0.6,0.5c0,0.3-0.3,0.5-0.6,0.5
		C56.3,30.6,56,30.3,56,30.1 M56,31.8c0-0.3,0.3-0.5,0.6-0.5c0.3,0,0.6,0.2,0.6,0.5c0,0.3-0.3,0.5-0.6,0.5
		C56.3,32.3,56,32.1,56,31.8 M56,33.6c0-0.3,0.3-0.5,0.6-0.5c0.3,0,0.6,0.2,0.6,0.5c0,0.3-0.3,0.5-0.6,0.5
		C56.3,34.1,56,33.9,56,33.6 M59.1,14.2c0-0.3,0.3-0.5,0.6-0.5c0.1,0,0.3,0,0.4,0.1v0.8c-0.1,0.1-0.2,0.1-0.4,0.1
		C59.3,14.8,59.1,14.5,59.1,14.2 M59.1,16c0-0.3,0.3-0.5,0.6-0.5c0.1,0,0.3,0,0.4,0.1v0.8c-0.1,0.1-0.2,0.1-0.4,0.1
		C59.3,16.5,59.1,16.3,59.1,16 M59.1,17.8c0-0.3,0.3-0.5,0.6-0.5c0.1,0,0.3,0,0.4,0.1v0.8c-0.1,0.1-0.2,0.1-0.4,0.1
		C59.3,18.3,59.1,18.1,59.1,17.8 M59.1,19.5c0-0.3,0.3-0.5,0.6-0.5c0.1,0,0.3,0,0.4,0.1v0.8C59.9,20,59.8,20,59.7,20
		C59.3,20,59.1,19.8,59.1,19.5 M59.1,21.3c0-0.3,0.3-0.5,0.6-0.5c0.1,0,0.3,0,0.4,0.1v0.8c-0.1,0.1-0.2,0.1-0.4,0.1
		C59.3,21.8,59.1,21.6,59.1,21.3 M59.1,23c0-0.3,0.3-0.5,0.6-0.5c0.1,0,0.3,0,0.4,0.1v0.8c-0.1,0.1-0.2,0.1-0.4,0.1
		C59.3,23.6,59.1,23.3,59.1,23 M59.1,24.8c0-0.3,0.3-0.5,0.6-0.5c0.1,0,0.3,0,0.4,0.1v0.8c-0.1,0.1-0.2,0.1-0.4,0.1
		C59.3,25.3,59.1,25.1,59.1,24.8 M59.1,26.5c0-0.3,0.3-0.5,0.6-0.5c0.1,0,0.3,0,0.4,0.1V27c-0.1,0.1-0.2,0.1-0.4,0.1
		C59.3,27.1,59.1,26.8,59.1,26.5 M59.1,28.3c0-0.3,0.3-0.5,0.6-0.5c0.1,0,0.3,0,0.4,0.1v0.8c-0.1,0.1-0.2,0.1-0.4,0.1
		C59.3,28.8,59.1,28.6,59.1,28.3 M59.1,30.1c0-0.3,0.3-0.5,0.6-0.5c0.1,0,0.3,0,0.4,0.1v0.8c-0.1,0.1-0.2,0.1-0.4,0.1
		C59.3,30.6,59.1,30.3,59.1,30.1 M59.1,31.8c0-0.3,0.3-0.5,0.6-0.5c0.1,0,0.3,0,0.4,0.1v0.8c-0.1,0.1-0.2,0.1-0.4,0.1
		C59.3,32.3,59.1,32.1,59.1,31.8 M59.1,33.6c0-0.3,0.3-0.5,0.6-0.5c0.1,0,0.3,0,0.4,0.1V34c-0.1,0.1-0.2,0.1-0.4,0.1
		C59.3,34.1,59.1,33.9,59.1,33.6 M52.6,13.2c0,0,0,0.1,0,0.2c0,0.3-0.3,0.5-0.6,0.5c-0.2,0-0.4-0.1-0.5-0.3v-0.4H52.6z"/>
	<path style="fill:#1B3E90;" d="M70.8,14.4c0.1-0.1,0.2-0.1,0.4-0.1c0.3,0,0.6,0.2,0.6,0.5c0,0.3-0.3,0.5-0.6,0.5
		c-0.1,0-0.3,0-0.4-0.1V14.4z M70.8,16.2c0.1-0.1,0.2-0.1,0.4-0.1c0.3,0,0.6,0.2,0.6,0.5c0,0.3-0.3,0.5-0.6,0.5
		c-0.1,0-0.3,0-0.4-0.1V16.2z M70.8,17.9c0.1-0.1,0.2-0.1,0.4-0.1c0.3,0,0.6,0.2,0.6,0.5c0,0.3-0.3,0.5-0.6,0.5
		c-0.1,0-0.3,0-0.4-0.1V17.9z M70.8,19.7c0.1-0.1,0.2-0.1,0.4-0.1c0.3,0,0.6,0.2,0.6,0.5c0,0.3-0.3,0.5-0.6,0.5
		c-0.1,0-0.3,0-0.4-0.1V19.7z M70.8,21.4c0.1-0.1,0.2-0.1,0.4-0.1c0.3,0,0.6,0.2,0.6,0.5c0,0.3-0.3,0.5-0.6,0.5
		c-0.1,0-0.3,0-0.4-0.1V21.4z M70.8,23.2c0.1-0.1,0.2-0.1,0.4-0.1c0.3,0,0.6,0.2,0.6,0.5c0,0.3-0.3,0.5-0.6,0.5
		c-0.1,0-0.3,0-0.4-0.1V23.2z M70.8,24.9c0.1-0.1,0.2-0.1,0.4-0.1c0.3,0,0.6,0.2,0.6,0.5c0,0.3-0.3,0.5-0.6,0.5
		c-0.1,0-0.3-0.1-0.4-0.1V24.9z M70.8,26.7c0.1-0.1,0.2-0.1,0.4-0.1c0.3,0,0.6,0.2,0.6,0.5c0,0.3-0.3,0.5-0.6,0.5
		c-0.1,0-0.3,0-0.4-0.1V26.7z M70.8,28.5c0.1-0.1,0.2-0.1,0.4-0.1c0.3,0,0.6,0.2,0.6,0.5c0,0.3-0.3,0.5-0.6,0.5
		c-0.1,0-0.3,0-0.4-0.1V28.5z M70.8,30.2c0.1-0.1,0.2-0.1,0.4-0.1c0.3,0,0.6,0.2,0.6,0.5c0,0.3-0.3,0.5-0.6,0.5
		c-0.1,0-0.3,0-0.4-0.1V30.2z M70.8,32c0.1-0.1,0.2-0.1,0.4-0.1c0.3,0,0.6,0.2,0.6,0.5c0,0.3-0.3,0.5-0.6,0.5c-0.1,0-0.3,0-0.4-0.1
		V32z M70.8,33.7c0.1-0.1,0.2-0.1,0.4-0.1c0.3,0,0.6,0.2,0.6,0.5h-0.9V33.7z M74.8,13.2c-0.1,0.2-0.3,0.4-0.6,0.4
		c-0.3,0-0.5-0.2-0.6-0.4H74.8z M73.7,14.8c0-0.3,0.3-0.5,0.6-0.5c0.3,0,0.6,0.2,0.6,0.5c0,0.3-0.3,0.5-0.6,0.5
		C73.9,15.3,73.7,15.1,73.7,14.8 M73.7,16.6c0-0.3,0.3-0.5,0.6-0.5c0.3,0,0.6,0.2,0.6,0.5c0,0.3-0.3,0.5-0.6,0.5
		C73.9,17.1,73.7,16.9,73.7,16.6 M73.7,18.3c0-0.3,0.3-0.5,0.6-0.5c0.3,0,0.6,0.2,0.6,0.5c0,0.3-0.3,0.5-0.6,0.5
		C73.9,18.9,73.7,18.6,73.7,18.3 M73.7,20.1c0-0.3,0.3-0.5,0.6-0.5c0.3,0,0.6,0.2,0.6,0.5c0,0.3-0.3,0.5-0.6,0.5
		C73.9,20.6,73.7,20.4,73.7,20.1 M73.7,21.8c0-0.3,0.3-0.5,0.6-0.5c0.3,0,0.6,0.2,0.6,0.5c0,0.3-0.3,0.5-0.6,0.5
		C73.9,22.4,73.7,22.1,73.7,21.8 M73.7,23.6c0-0.3,0.3-0.5,0.6-0.5c0.3,0,0.6,0.2,0.6,0.5c0,0.3-0.3,0.5-0.6,0.5
		C73.9,24.1,73.7,23.9,73.7,23.6 M73.7,25.4c0-0.3,0.3-0.5,0.6-0.5c0.3,0,0.6,0.2,0.6,0.5c0,0.3-0.3,0.5-0.6,0.5
		C73.9,25.9,73.7,25.6,73.7,25.4 M73.7,27.1c0-0.3,0.3-0.5,0.6-0.5c0.3,0,0.6,0.2,0.6,0.5c0,0.3-0.3,0.5-0.6,0.5
		C73.9,27.6,73.7,27.4,73.7,27.1 M73.7,28.9c0-0.3,0.3-0.5,0.6-0.5c0.3,0,0.6,0.2,0.6,0.5c0,0.3-0.3,0.5-0.6,0.5
		C73.9,29.4,73.7,29.2,73.7,28.9 M73.7,30.6c0-0.3,0.3-0.5,0.6-0.5c0.3,0,0.6,0.2,0.6,0.5c0,0.3-0.3,0.5-0.6,0.5
		C73.9,31.1,73.7,30.9,73.7,30.6 M73.7,32.4c0-0.3,0.3-0.5,0.6-0.5c0.3,0,0.6,0.2,0.6,0.5c0,0.3-0.3,0.5-0.6,0.5
		C73.9,32.9,73.7,32.7,73.7,32.4 M73.7,34.1c0-0.3,0.3-0.5,0.6-0.5c0.3,0,0.6,0.2,0.6,0.5H73.7z M72.2,13.9c0-0.3,0.2-0.5,0.6-0.5
		c0.3,0,0.6,0.2,0.6,0.5c0,0.3-0.3,0.5-0.6,0.5C72.4,14.5,72.2,14.2,72.2,13.9 M72.2,15.7c0-0.3,0.2-0.5,0.6-0.5
		c0.3,0,0.6,0.2,0.6,0.5c0,0.3-0.3,0.5-0.6,0.5C72.4,16.2,72.2,16,72.2,15.7 M72.2,17.5c0-0.3,0.2-0.5,0.6-0.5
		c0.3,0,0.6,0.2,0.6,0.5c0,0.3-0.3,0.5-0.6,0.5C72.4,18,72.2,17.7,72.2,17.5 M72.2,19.2c0-0.3,0.2-0.5,0.6-0.5
		c0.3,0,0.6,0.2,0.6,0.5c0,0.3-0.3,0.5-0.6,0.5C72.4,19.7,72.2,19.5,72.2,19.2 M72.2,21c0-0.3,0.2-0.5,0.6-0.5
		c0.3,0,0.6,0.2,0.6,0.5c0,0.3-0.3,0.5-0.6,0.5C72.4,21.5,72.2,21.3,72.2,21 M72.2,22.7c0-0.3,0.2-0.5,0.6-0.5
		c0.3,0,0.6,0.2,0.6,0.5c0,0.3-0.3,0.5-0.6,0.5C72.4,23.2,72.2,23,72.2,22.7 M72.2,24.5c0-0.3,0.2-0.5,0.6-0.5
		c0.3,0,0.6,0.2,0.6,0.5c0,0.3-0.3,0.5-0.6,0.5C72.4,25,72.2,24.8,72.2,24.5 M72.2,26.2c0-0.3,0.2-0.5,0.6-0.5
		c0.3,0,0.6,0.2,0.6,0.5c0,0.3-0.3,0.5-0.6,0.5C72.4,26.8,72.2,26.5,72.2,26.2 M72.2,28c0-0.3,0.2-0.5,0.6-0.5
		c0.3,0,0.6,0.2,0.6,0.5c0,0.3-0.3,0.5-0.6,0.5C72.4,28.5,72.2,28.3,72.2,28 M72.2,29.7c0-0.3,0.2-0.5,0.6-0.5
		c0.3,0,0.6,0.2,0.6,0.5c0,0.3-0.3,0.5-0.6,0.5C72.4,30.3,72.2,30,72.2,29.7 M72.2,31.5c0-0.3,0.2-0.5,0.6-0.5
		c0.3,0,0.6,0.2,0.6,0.5c0,0.3-0.3,0.5-0.6,0.5C72.4,32,72.2,31.8,72.2,31.5 M72.2,33.3c0-0.3,0.2-0.5,0.6-0.5
		c0.3,0,0.6,0.2,0.6,0.5c0,0.3-0.3,0.5-0.6,0.5C72.4,33.8,72.2,33.5,72.2,33.3 M77.9,13.2c-0.1,0.2-0.3,0.4-0.6,0.4
		c-0.3,0-0.5-0.2-0.5-0.4H77.9z M76.7,14.8c0-0.3,0.3-0.5,0.6-0.5s0.6,0.2,0.6,0.5c0,0.3-0.3,0.5-0.6,0.5S76.7,15.1,76.7,14.8
		 M76.7,16.6c0-0.3,0.3-0.5,0.6-0.5s0.6,0.2,0.6,0.5c0,0.3-0.3,0.5-0.6,0.5S76.7,16.9,76.7,16.6 M76.7,18.3c0-0.3,0.3-0.5,0.6-0.5
		s0.6,0.2,0.6,0.5c0,0.3-0.3,0.5-0.6,0.5S76.7,18.6,76.7,18.3 M76.7,20.1c0-0.3,0.3-0.5,0.6-0.5s0.6,0.2,0.6,0.5
		c0,0.3-0.3,0.5-0.6,0.5S76.7,20.4,76.7,20.1 M76.7,21.8c0-0.3,0.3-0.5,0.6-0.5s0.6,0.2,0.6,0.5c0,0.3-0.3,0.5-0.6,0.5
		S76.7,22.1,76.7,21.8 M76.7,23.6c0-0.3,0.3-0.5,0.6-0.5s0.6,0.2,0.6,0.5c0,0.3-0.3,0.5-0.6,0.5S76.7,23.9,76.7,23.6 M76.7,25.4
		c0-0.3,0.3-0.5,0.6-0.5s0.6,0.2,0.6,0.5c0,0.3-0.3,0.5-0.6,0.5S76.7,25.6,76.7,25.4 M76.7,27.1c0-0.3,0.3-0.5,0.6-0.5
		s0.6,0.2,0.6,0.5c0,0.3-0.3,0.5-0.6,0.5S76.7,27.4,76.7,27.1 M76.7,28.9c0-0.3,0.3-0.5,0.6-0.5s0.6,0.2,0.6,0.5
		c0,0.3-0.3,0.5-0.6,0.5S76.7,29.2,76.7,28.9 M76.7,30.6c0-0.3,0.3-0.5,0.6-0.5s0.6,0.2,0.6,0.5c0,0.3-0.3,0.5-0.6,0.5
		S76.7,30.9,76.7,30.6 M76.7,32.4c0-0.3,0.3-0.5,0.6-0.5s0.6,0.2,0.6,0.5c0,0.3-0.3,0.5-0.6,0.5S76.7,32.7,76.7,32.4 M76.7,34.1
		c0-0.3,0.3-0.5,0.6-0.5c0.3,0,0.6,0.2,0.6,0.5H76.7z M75.2,13.9c0-0.3,0.2-0.5,0.6-0.5c0.3,0,0.6,0.2,0.6,0.5
		c0,0.3-0.3,0.5-0.6,0.5C75.5,14.5,75.2,14.2,75.2,13.9 M75.2,15.7c0-0.3,0.2-0.5,0.6-0.5c0.3,0,0.6,0.2,0.6,0.5
		c0,0.3-0.3,0.5-0.6,0.5C75.5,16.2,75.2,16,75.2,15.7 M75.2,17.5c0-0.3,0.2-0.5,0.6-0.5c0.3,0,0.6,0.2,0.6,0.5
		c0,0.3-0.3,0.5-0.6,0.5C75.5,18,75.2,17.7,75.2,17.5 M75.2,19.2c0-0.3,0.2-0.5,0.6-0.5c0.3,0,0.6,0.2,0.6,0.5
		c0,0.3-0.3,0.5-0.6,0.5C75.5,19.7,75.2,19.5,75.2,19.2 M75.2,21c0-0.3,0.2-0.5,0.6-0.5c0.3,0,0.6,0.2,0.6,0.5
		c0,0.3-0.3,0.5-0.6,0.5C75.5,21.5,75.2,21.3,75.2,21 M75.2,22.7c0-0.3,0.2-0.5,0.6-0.5c0.3,0,0.6,0.2,0.6,0.5
		c0,0.3-0.3,0.5-0.6,0.5C75.5,23.2,75.2,23,75.2,22.7 M75.2,24.5c0-0.3,0.2-0.5,0.6-0.5c0.3,0,0.6,0.2,0.6,0.5
		c0,0.3-0.3,0.5-0.6,0.5C75.5,25,75.2,24.8,75.2,24.5 M75.2,26.2c0-0.3,0.2-0.5,0.6-0.5c0.3,0,0.6,0.2,0.6,0.5
		c0,0.3-0.3,0.5-0.6,0.5C75.5,26.8,75.2,26.5,75.2,26.2 M75.2,28c0-0.3,0.2-0.5,0.6-0.5c0.3,0,0.6,0.2,0.6,0.5
		c0,0.3-0.3,0.5-0.6,0.5C75.5,28.5,75.2,28.3,75.2,28 M75.2,29.7c0-0.3,0.2-0.5,0.6-0.5c0.3,0,0.6,0.2,0.6,0.5
		c0,0.3-0.3,0.5-0.6,0.5C75.5,30.3,75.2,30,75.2,29.7 M75.2,31.5c0-0.3,0.2-0.5,0.6-0.5c0.3,0,0.6,0.2,0.6,0.5
		c0,0.3-0.3,0.5-0.6,0.5C75.5,32,75.2,31.8,75.2,31.5 M75.2,33.3c0-0.3,0.2-0.5,0.6-0.5c0.3,0,0.6,0.2,0.6,0.5
		c0,0.3-0.3,0.5-0.6,0.5C75.5,33.8,75.2,33.5,75.2,33.3 M80.9,13.2c-0.1,0.2-0.3,0.4-0.5,0.4c-0.3,0-0.5-0.2-0.5-0.4H80.9z
		 M79.8,14.8c0-0.3,0.3-0.5,0.6-0.5c0.3,0,0.6,0.2,0.6,0.5c0,0.3-0.3,0.5-0.6,0.5C80.1,15.3,79.8,15.1,79.8,14.8 M79.8,16.6
		c0-0.3,0.3-0.5,0.6-0.5c0.3,0,0.6,0.2,0.6,0.5c0,0.3-0.3,0.5-0.6,0.5C80.1,17.1,79.8,16.9,79.8,16.6 M79.8,18.2
		c0.1-0.2,0.3-0.4,0.6-0.4c0.3,0,0.5,0.2,0.6,0.4H79.8z M78.3,13.9c0-0.3,0.3-0.5,0.6-0.5c0.3,0,0.6,0.2,0.6,0.5
		c0,0.3-0.3,0.5-0.6,0.5C78.5,14.5,78.3,14.2,78.3,13.9 M78.3,15.7c0-0.3,0.3-0.5,0.6-0.5c0.3,0,0.6,0.2,0.6,0.5
		c0,0.3-0.3,0.5-0.6,0.5C78.5,16.2,78.3,16,78.3,15.7 M78.3,17.5c0-0.3,0.3-0.5,0.6-0.5c0.3,0,0.6,0.2,0.6,0.5
		c0,0.3-0.3,0.5-0.6,0.5C78.5,18,78.3,17.7,78.3,17.5 M78.3,19.2c0-0.3,0.2-0.5,0.5-0.5v1C78.5,19.7,78.3,19.5,78.3,19.2 M78.3,21
		c0-0.3,0.2-0.5,0.5-0.5v1C78.5,21.4,78.3,21.2,78.3,21 M78.3,22.7c0-0.3,0.2-0.5,0.5-0.5v1C78.5,23.2,78.3,23,78.3,22.7 M78.3,24.5
		c0-0.3,0.2-0.5,0.5-0.5v1C78.5,25,78.3,24.7,78.3,24.5 M78.3,26.2c0-0.3,0.2-0.5,0.5-0.5v1C78.5,26.7,78.3,26.5,78.3,26.2 M78.3,28
		c0-0.3,0.2-0.5,0.5-0.5v1C78.5,28.5,78.3,28.2,78.3,28 M78.3,29.7c0-0.3,0.2-0.5,0.5-0.5v1C78.5,30.2,78.3,30,78.3,29.7 M78.3,31.5
		c0-0.3,0.2-0.5,0.5-0.5v1C78.5,32,78.3,31.8,78.3,31.5 M78.3,33.3c0-0.3,0.2-0.5,0.5-0.5v1C78.5,33.7,78.3,33.5,78.3,33.3 M84,13.2
		c-0.1,0.2-0.3,0.4-0.5,0.4c-0.3,0-0.5-0.2-0.6-0.4H84z M82.9,14.8c0-0.3,0.3-0.5,0.6-0.5c0.3,0,0.6,0.2,0.6,0.5
		c0,0.3-0.3,0.5-0.6,0.5C83.1,15.3,82.9,15.1,82.9,14.8 M82.9,16.6c0-0.3,0.3-0.5,0.6-0.5c0.3,0,0.6,0.2,0.6,0.5
		c0,0.3-0.3,0.5-0.6,0.5C83.1,17.1,82.9,16.9,82.9,16.6 M82.9,18.2c0.1-0.2,0.3-0.4,0.6-0.4c0.3,0,0.5,0.2,0.6,0.4H82.9z M81.3,13.9
		c0-0.3,0.3-0.5,0.6-0.5c0.3,0,0.6,0.2,0.6,0.5c0,0.3-0.3,0.5-0.6,0.5C81.6,14.5,81.3,14.2,81.3,13.9 M81.3,15.7
		c0-0.3,0.3-0.5,0.6-0.5c0.3,0,0.6,0.2,0.6,0.5c0,0.3-0.3,0.5-0.6,0.5C81.6,16.2,81.3,16,81.3,15.7 M81.3,17.5
		c0-0.3,0.3-0.5,0.6-0.5c0.3,0,0.6,0.2,0.6,0.5c0,0.3-0.3,0.5-0.6,0.5C81.6,18,81.3,17.7,81.3,17.5 M87,13.2
		c-0.1,0.2-0.3,0.4-0.5,0.4c-0.3,0-0.5-0.2-0.6-0.4H87z M85.9,14.8c0-0.3,0.3-0.5,0.6-0.5c0.3,0,0.6,0.2,0.6,0.5
		c0,0.3-0.2,0.5-0.6,0.5C86.2,15.3,85.9,15.1,85.9,14.8 M85.9,16.6c0-0.3,0.3-0.5,0.6-0.5c0.3,0,0.6,0.2,0.6,0.5
		c0,0.3-0.2,0.5-0.6,0.5C86.2,17.1,85.9,16.9,85.9,16.6 M85.9,18.3c0-0.3,0.3-0.5,0.6-0.5c0.3,0,0.6,0.2,0.6,0.5
		c0,0.3-0.2,0.5-0.6,0.5C86.2,18.9,85.9,18.6,85.9,18.3 M86.6,19.6c0.2,0.1,0.4,0.2,0.4,0.4L86.6,19.6z M84.4,13.9
		c0-0.3,0.3-0.5,0.6-0.5c0.3,0,0.6,0.2,0.6,0.5c0,0.3-0.3,0.5-0.6,0.5C84.6,14.5,84.4,14.2,84.4,13.9 M84.4,15.7
		c0-0.3,0.3-0.5,0.6-0.5c0.3,0,0.6,0.2,0.6,0.5c0,0.3-0.3,0.5-0.6,0.5C84.6,16.2,84.4,16,84.4,15.7 M84.4,17.5
		c0-0.3,0.3-0.5,0.6-0.5c0.3,0,0.6,0.2,0.6,0.5c0,0.3-0.3,0.5-0.6,0.5C84.6,18,84.4,17.7,84.4,17.5 M90.1,13.2
		c-0.1,0.2-0.3,0.4-0.5,0.4c-0.3,0-0.5-0.2-0.5-0.4H90.1z M89,14.8c0-0.3,0.3-0.5,0.6-0.5c0.3,0,0.6,0.2,0.6,0.5
		c0,0.3-0.3,0.5-0.6,0.5C89.2,15.3,89,15.1,89,14.8 M89,16.6c0-0.3,0.3-0.5,0.6-0.5c0.3,0,0.6,0.2,0.6,0.5c0,0.3-0.3,0.5-0.6,0.5
		C89.2,17.1,89,16.9,89,16.6 M89,18.3c0-0.3,0.3-0.5,0.6-0.5c0.3,0,0.6,0.2,0.6,0.5c0,0.3-0.3,0.5-0.6,0.5
		C89.2,18.9,89,18.6,89,18.3 M89,20.1c0-0.3,0.3-0.5,0.6-0.5c0.3,0,0.6,0.2,0.6,0.5c0,0.3-0.3,0.5-0.6,0.5
		C89.2,20.6,89,20.4,89,20.1 M89,21.8c0-0.3,0.3-0.5,0.6-0.5c0.3,0,0.6,0.2,0.6,0.5c0,0.3-0.3,0.5-0.6,0.5c-0.1,0-0.2,0-0.3-0.1
		L89,22.1C89,22,89,21.9,89,21.8 M87.4,13.9c0-0.3,0.3-0.5,0.6-0.5c0.3,0,0.6,0.2,0.6,0.5c0,0.3-0.2,0.5-0.6,0.5
		C87.7,14.5,87.4,14.2,87.4,13.9 M87.4,15.7c0-0.3,0.3-0.5,0.6-0.5c0.3,0,0.6,0.2,0.6,0.5c0,0.3-0.2,0.5-0.6,0.5
		C87.7,16.2,87.4,16,87.4,15.7 M87.4,17.5c0-0.3,0.3-0.5,0.6-0.5c0.3,0,0.6,0.2,0.6,0.5c0,0.3-0.2,0.5-0.6,0.5
		C87.7,18,87.4,17.7,87.4,17.5 M87.4,19.2c0-0.3,0.3-0.5,0.6-0.5c0.3,0,0.6,0.2,0.6,0.5c0,0.3-0.2,0.5-0.6,0.5
		C87.7,19.7,87.4,19.5,87.4,19.2 M87.6,20.6c0.1-0.1,0.2-0.2,0.4-0.2c0.3,0,0.6,0.2,0.6,0.5c0,0.2-0.1,0.3-0.2,0.4L87.6,20.6z
		 M93.1,13.2c-0.1,0.2-0.3,0.4-0.5,0.4c-0.3,0-0.5-0.2-0.5-0.4H93.1z M92,14.8c0-0.3,0.2-0.5,0.6-0.5c0.3,0,0.6,0.2,0.6,0.5
		c0,0.3-0.2,0.5-0.6,0.5C92.3,15.3,92,15.1,92,14.8 M92,16.6c0-0.3,0.2-0.5,0.6-0.5c0.3,0,0.6,0.2,0.6,0.5c0,0.3-0.2,0.5-0.6,0.5
		C92.3,17.1,92,16.9,92,16.6 M92,18.3c0-0.3,0.2-0.5,0.6-0.5c0.3,0,0.6,0.2,0.6,0.5c0,0.3-0.2,0.5-0.6,0.5
		C92.3,18.9,92,18.6,92,18.3 M92,20.1c0-0.3,0.2-0.5,0.6-0.5c0.3,0,0.6,0.2,0.6,0.5c0,0.3-0.2,0.5-0.6,0.5
		C92.3,20.6,92,20.4,92,20.1 M92,21.8c0-0.3,0.2-0.5,0.6-0.5c0.3,0,0.6,0.2,0.6,0.5c0,0.3-0.2,0.5-0.6,0.5
		C92.3,22.4,92,22.1,92,21.8 M92,23.6c0-0.3,0.2-0.5,0.6-0.5c0.3,0,0.6,0.2,0.6,0.5c0,0.3-0.2,0.5-0.6,0.5
		C92.3,24.1,92,23.9,92,23.6 M92,25.4c0-0.3,0.2-0.5,0.6-0.5c0.3,0,0.6,0.2,0.6,0.5c0,0.3-0.2,0.5-0.6,0.5
		C92.3,25.9,92,25.6,92,25.4 M92,27.1c0-0.3,0.2-0.5,0.6-0.5c0.3,0,0.6,0.2,0.6,0.5c0,0.3-0.2,0.5-0.6,0.5
		C92.3,27.6,92,27.4,92,27.1 M92,28.9c0-0.3,0.2-0.5,0.6-0.5c0.3,0,0.6,0.2,0.6,0.5c0,0.3-0.2,0.5-0.6,0.5
		C92.3,29.4,92,29.2,92,28.9 M92,30.6c0-0.3,0.2-0.5,0.6-0.5c0.3,0,0.6,0.2,0.6,0.5c0,0.3-0.2,0.5-0.6,0.5
		C92.3,31.1,92,30.9,92,30.6 M92,32.4c0-0.3,0.2-0.5,0.6-0.5c0.3,0,0.6,0.2,0.6,0.5c0,0.3-0.2,0.5-0.6,0.5
		C92.3,32.9,92,32.7,92,32.4 M92,34.1c0-0.3,0.2-0.5,0.6-0.5c0.3,0,0.5,0.2,0.6,0.5H92z M90.5,13.9c0-0.3,0.2-0.5,0.6-0.5
		c0.3,0,0.6,0.2,0.6,0.5c0,0.3-0.2,0.5-0.6,0.5C90.7,14.5,90.5,14.2,90.5,13.9 M90.5,15.7c0-0.3,0.2-0.5,0.6-0.5
		c0.3,0,0.6,0.2,0.6,0.5c0,0.3-0.2,0.5-0.6,0.5C90.7,16.2,90.5,16,90.5,15.7 M90.5,17.5c0-0.3,0.2-0.5,0.6-0.5
		c0.3,0,0.6,0.2,0.6,0.5c0,0.3-0.2,0.5-0.6,0.5C90.7,18,90.5,17.7,90.5,17.5 M90.5,19.2c0-0.3,0.2-0.5,0.6-0.5
		c0.3,0,0.6,0.2,0.6,0.5c0,0.3-0.2,0.5-0.6,0.5C90.7,19.7,90.5,19.5,90.5,19.2 M90.5,21c0-0.3,0.2-0.5,0.6-0.5
		c0.3,0,0.6,0.2,0.6,0.5c0,0.3-0.2,0.5-0.6,0.5C90.7,21.5,90.5,21.3,90.5,21 M90.5,22.7c0-0.3,0.2-0.5,0.6-0.5
		c0.3,0,0.6,0.2,0.6,0.5c0,0.3-0.2,0.5-0.6,0.5C90.7,23.2,90.5,23,90.5,22.7 M90.5,24.5c0-0.3,0.2-0.5,0.6-0.5
		c0.3,0,0.6,0.2,0.6,0.5c0,0.3-0.2,0.5-0.6,0.5C90.7,25,90.5,24.8,90.5,24.5 M90.5,26.2c0-0.3,0.2-0.5,0.6-0.5
		c0.3,0,0.6,0.2,0.6,0.5c0,0.3-0.2,0.5-0.6,0.5C90.7,26.8,90.5,26.5,90.5,26.2 M90.5,28c0-0.3,0.2-0.5,0.6-0.5
		c0.3,0,0.6,0.2,0.6,0.5c0,0.3-0.2,0.5-0.6,0.5C90.7,28.5,90.5,28.3,90.5,28 M90.5,29.7c0-0.3,0.2-0.5,0.6-0.5
		c0.3,0,0.6,0.2,0.6,0.5c0,0.3-0.2,0.5-0.6,0.5C90.7,30.3,90.5,30,90.5,29.7 M90.5,31.5c0-0.3,0.2-0.5,0.6-0.5
		c0.3,0,0.6,0.2,0.6,0.5c0,0.3-0.2,0.5-0.6,0.5C90.7,32,90.5,31.8,90.5,31.5 M90.5,33.3c0-0.3,0.2-0.5,0.6-0.5
		c0.3,0,0.6,0.2,0.6,0.5c0,0.3-0.2,0.5-0.6,0.5C90.7,33.8,90.5,33.5,90.5,33.3 M96.2,13.2c-0.1,0.2-0.3,0.4-0.6,0.4
		c-0.3,0-0.5-0.2-0.5-0.4H96.2z M95.1,14.8c0-0.3,0.2-0.5,0.6-0.5c0.3,0,0.6,0.2,0.6,0.5c0,0.3-0.3,0.5-0.6,0.5
		C95.3,15.3,95.1,15.1,95.1,14.8 M95.1,16.6c0-0.3,0.2-0.5,0.6-0.5c0.3,0,0.6,0.2,0.6,0.5c0,0.3-0.3,0.5-0.6,0.5
		C95.3,17.1,95.1,16.9,95.1,16.6 M95.1,18.3c0-0.3,0.2-0.5,0.6-0.5c0.3,0,0.6,0.2,0.6,0.5c0,0.3-0.3,0.5-0.6,0.5
		C95.3,18.9,95.1,18.6,95.1,18.3 M95.1,20.1c0-0.3,0.2-0.5,0.6-0.5c0.3,0,0.6,0.2,0.6,0.5c0,0.3-0.3,0.5-0.6,0.5
		C95.3,20.6,95.1,20.4,95.1,20.1 M95.1,21.8c0-0.3,0.2-0.5,0.6-0.5c0.3,0,0.6,0.2,0.6,0.5c0,0.3-0.3,0.5-0.6,0.5
		C95.3,22.4,95.1,22.1,95.1,21.8 M95.1,23.6c0-0.3,0.2-0.5,0.6-0.5c0.3,0,0.6,0.2,0.6,0.5c0,0.3-0.3,0.5-0.6,0.5
		C95.3,24.1,95.1,23.9,95.1,23.6 M95.1,25.4c0-0.3,0.2-0.5,0.6-0.5c0.3,0,0.6,0.2,0.6,0.5c0,0.3-0.3,0.5-0.6,0.5
		C95.3,25.9,95.1,25.6,95.1,25.4 M95.1,27.1c0-0.3,0.2-0.5,0.6-0.5c0.3,0,0.6,0.2,0.6,0.5c0,0.3-0.3,0.5-0.6,0.5
		C95.3,27.6,95.1,27.4,95.1,27.1 M95.1,28.9c0-0.3,0.2-0.5,0.6-0.5c0.3,0,0.6,0.2,0.6,0.5c0,0.3-0.3,0.5-0.6,0.5
		C95.3,29.4,95.1,29.2,95.1,28.9 M95.1,30.6c0-0.3,0.2-0.5,0.6-0.5c0.3,0,0.6,0.2,0.6,0.5c0,0.3-0.3,0.5-0.6,0.5
		C95.3,31.1,95.1,30.9,95.1,30.6 M95.1,32.4c0-0.3,0.2-0.5,0.6-0.5c0.3,0,0.6,0.2,0.6,0.5c0,0.3-0.3,0.5-0.6,0.5
		C95.3,32.9,95.1,32.7,95.1,32.4 M95.1,34.1c0-0.3,0.3-0.5,0.6-0.5c0.3,0,0.6,0.2,0.6,0.5H95.1z M93.6,13.9c0-0.3,0.2-0.5,0.6-0.5
		c0.3,0,0.6,0.2,0.6,0.5c0,0.3-0.3,0.5-0.6,0.5C93.8,14.5,93.6,14.2,93.6,13.9 M93.6,15.7c0-0.3,0.2-0.5,0.6-0.5
		c0.3,0,0.6,0.2,0.6,0.5c0,0.3-0.3,0.5-0.6,0.5C93.8,16.2,93.6,16,93.6,15.7 M93.6,17.5c0-0.3,0.2-0.5,0.6-0.5
		c0.3,0,0.6,0.2,0.6,0.5c0,0.3-0.3,0.5-0.6,0.5C93.8,18,93.6,17.7,93.6,17.5 M93.6,19.2c0-0.3,0.2-0.5,0.6-0.5
		c0.3,0,0.6,0.2,0.6,0.5c0,0.3-0.3,0.5-0.6,0.5C93.8,19.7,93.6,19.5,93.6,19.2 M93.6,21c0-0.3,0.2-0.5,0.6-0.5
		c0.3,0,0.6,0.2,0.6,0.5c0,0.3-0.3,0.5-0.6,0.5C93.8,21.5,93.6,21.3,93.6,21 M93.6,22.7c0-0.3,0.2-0.5,0.6-0.5
		c0.3,0,0.6,0.2,0.6,0.5c0,0.3-0.3,0.5-0.6,0.5C93.8,23.2,93.6,23,93.6,22.7 M93.6,24.5c0-0.3,0.2-0.5,0.6-0.5
		c0.3,0,0.6,0.2,0.6,0.5c0,0.3-0.3,0.5-0.6,0.5C93.8,25,93.6,24.8,93.6,24.5 M93.6,26.2c0-0.3,0.2-0.5,0.6-0.5
		c0.3,0,0.6,0.2,0.6,0.5c0,0.3-0.3,0.5-0.6,0.5C93.8,26.8,93.6,26.5,93.6,26.2 M93.6,28c0-0.3,0.2-0.5,0.6-0.5
		c0.3,0,0.6,0.2,0.6,0.5c0,0.3-0.3,0.5-0.6,0.5C93.8,28.5,93.6,28.3,93.6,28 M93.6,29.7c0-0.3,0.2-0.5,0.6-0.5
		c0.3,0,0.6,0.2,0.6,0.5c0,0.3-0.3,0.5-0.6,0.5C93.8,30.3,93.6,30,93.6,29.7 M93.6,31.5c0-0.3,0.2-0.5,0.6-0.5
		c0.3,0,0.6,0.2,0.6,0.5c0,0.3-0.3,0.5-0.6,0.5C93.8,32,93.6,31.8,93.6,31.5 M93.6,33.3c0-0.3,0.2-0.5,0.6-0.5
		c0.3,0,0.6,0.2,0.6,0.5c0,0.3-0.3,0.5-0.6,0.5C93.8,33.8,93.6,33.5,93.6,33.3 M96.6,13.9c0-0.3,0.3-0.5,0.6-0.5
		c0.3,0,0.6,0.2,0.6,0.5c0,0.3-0.3,0.5-0.6,0.5C96.9,14.5,96.6,14.2,96.6,13.9 M96.6,15.7c0-0.3,0.3-0.5,0.6-0.5
		c0.3,0,0.6,0.2,0.6,0.5c0,0.3-0.3,0.5-0.6,0.5C96.9,16.2,96.6,16,96.6,15.7 M96.6,17.5c0-0.3,0.3-0.5,0.6-0.5
		c0.3,0,0.6,0.2,0.6,0.5c0,0.3-0.3,0.5-0.6,0.5C96.9,18,96.6,17.7,96.6,17.5 M96.6,19.2c0-0.3,0.3-0.5,0.6-0.5
		c0.3,0,0.6,0.2,0.6,0.5c0,0.3-0.3,0.5-0.6,0.5C96.9,19.7,96.6,19.5,96.6,19.2 M96.6,21c0-0.3,0.3-0.5,0.6-0.5
		c0.3,0,0.6,0.2,0.6,0.5c0,0.3-0.3,0.5-0.6,0.5C96.9,21.5,96.6,21.3,96.6,21 M96.6,22.7c0-0.3,0.3-0.5,0.6-0.5
		c0.3,0,0.6,0.2,0.6,0.5c0,0.3-0.3,0.5-0.6,0.5C96.9,23.2,96.6,23,96.6,22.7 M96.6,24.5c0-0.3,0.3-0.5,0.6-0.5
		c0.3,0,0.6,0.2,0.6,0.5c0,0.3-0.3,0.5-0.6,0.5C96.9,25,96.6,24.8,96.6,24.5 M96.6,26.2c0-0.3,0.3-0.5,0.6-0.5
		c0.3,0,0.6,0.2,0.6,0.5c0,0.3-0.3,0.5-0.6,0.5C96.9,26.8,96.6,26.5,96.6,26.2 M96.6,28c0-0.3,0.3-0.5,0.6-0.5
		c0.3,0,0.6,0.2,0.6,0.5c0,0.3-0.3,0.5-0.6,0.5C96.9,28.5,96.6,28.3,96.6,28 M96.6,29.7c0-0.3,0.3-0.5,0.6-0.5
		c0.3,0,0.6,0.2,0.6,0.5c0,0.3-0.3,0.5-0.6,0.5C96.9,30.3,96.6,30,96.6,29.7 M96.6,31.5c0-0.3,0.3-0.5,0.6-0.5
		c0.3,0,0.6,0.2,0.6,0.5c0,0.3-0.3,0.5-0.6,0.5C96.9,32,96.6,31.8,96.6,31.5 M96.6,33.3c0-0.3,0.3-0.5,0.6-0.5
		c0.3,0,0.6,0.2,0.6,0.5c0,0.3-0.3,0.5-0.6,0.5C96.9,33.8,96.6,33.5,96.6,33.3 M71.7,13.2c-0.1,0.2-0.3,0.4-0.5,0.4
		c-0.1,0-0.3,0-0.4-0.1v-0.3H71.7z"/>
	<path style="fill:#1B3E90;" d="M112.5,16.7c0-0.3,0.2-0.5,0.6-0.5c0.3,0,0.6,0.2,0.6,0.5c0,0.3-0.3,0.5-0.6,0.5
		C112.8,17.2,112.5,17,112.5,16.7 M112.5,18.4c0-0.3,0.2-0.5,0.6-0.5c0.3,0,0.6,0.2,0.6,0.5c0,0.3-0.3,0.5-0.6,0.5
		C112.8,18.9,112.5,18.7,112.5,18.4 M112.5,20.2c0-0.3,0.2-0.5,0.6-0.5c0.3,0,0.6,0.2,0.6,0.5c0,0.3-0.3,0.5-0.6,0.5
		C112.8,20.7,112.5,20.5,112.5,20.2 M112.5,21.9c0-0.3,0.2-0.5,0.6-0.5c0.3,0,0.6,0.2,0.6,0.5c0,0.3-0.3,0.5-0.6,0.5
		C112.8,22.5,112.5,22.2,112.5,21.9 M112.5,23.7c0-0.3,0.2-0.5,0.6-0.5c0.3,0,0.6,0.2,0.6,0.5c0,0.3-0.3,0.5-0.6,0.5
		C112.8,24.2,112.5,24,112.5,23.7 M112.5,25.5c0-0.3,0.2-0.5,0.6-0.5c0.3,0,0.6,0.2,0.6,0.5c0,0.3-0.3,0.5-0.6,0.5
		C112.8,26,112.5,25.7,112.5,25.5 M112.5,27.2c0-0.3,0.2-0.5,0.6-0.5c0.3,0,0.6,0.2,0.6,0.5c0,0.3-0.3,0.5-0.6,0.5
		C112.8,27.7,112.5,27.5,112.5,27.2 M112.5,29c0-0.3,0.2-0.5,0.6-0.5c0.3,0,0.6,0.2,0.6,0.5c0,0.3-0.3,0.5-0.6,0.5
		C112.8,29.5,112.5,29.3,112.5,29 M112.5,30.7c0-0.3,0.2-0.5,0.6-0.5c0.3,0,0.6,0.2,0.6,0.5c0,0.3-0.3,0.5-0.6,0.5
		C112.8,31.2,112.5,31,112.5,30.7 M112.5,32.5c0-0.3,0.2-0.5,0.6-0.5c0.3,0,0.6,0.2,0.6,0.5c0,0.3-0.3,0.5-0.6,0.5
		C112.8,33,112.5,32.8,112.5,32.5 M112.6,34c0.1-0.2,0.3-0.3,0.5-0.3c0.3,0,0.5,0.2,0.5,0.4C113.3,34.1,112.9,34.1,112.6,34
		 M112.1,15.5c0.1,0.1,0.1,0.2,0.1,0.3c0,0.3-0.2,0.5-0.6,0.5c0,0,0,0,0,0C111.7,16,111.9,15.8,112.1,15.5 M111.1,17.2
		c0.1-0.1,0.3-0.2,0.4-0.2c0.3,0,0.6,0.2,0.6,0.5c0,0.3-0.2,0.5-0.6,0.5c-0.3,0-0.5-0.2-0.6-0.4C111,17.5,111.1,17.3,111.1,17.2
		 M111,19.3c0-0.3,0.2-0.5,0.6-0.5c0.3,0,0.6,0.2,0.6,0.5c0,0.3-0.2,0.5-0.6,0.5C111.3,19.8,111,19.6,111,19.3 M111,21.1
		c0-0.3,0.2-0.5,0.6-0.5c0.3,0,0.6,0.2,0.6,0.5c0,0.3-0.2,0.5-0.6,0.5C111.3,21.6,111,21.3,111,21.1 M111,22.8
		c0-0.3,0.2-0.5,0.6-0.5c0.3,0,0.6,0.2,0.6,0.5c0,0.3-0.2,0.5-0.6,0.5C111.3,23.3,111,23.1,111,22.8 M111,24.6
		c0-0.3,0.2-0.5,0.6-0.5c0.3,0,0.6,0.2,0.6,0.5c0,0.3-0.2,0.5-0.6,0.5C111.3,25.1,111,24.9,111,24.6 M111,26.3
		c0-0.3,0.2-0.5,0.6-0.5c0.3,0,0.6,0.2,0.6,0.5c0,0.3-0.2,0.5-0.6,0.5C111.3,26.9,111,26.6,111,26.3 M111,28.1
		c0-0.3,0.2-0.5,0.6-0.5c0.3,0,0.6,0.2,0.6,0.5c0,0.3-0.2,0.5-0.6,0.5C111.3,28.6,111,28.4,111,28.1 M111,29.8
		c0-0.3,0.2-0.5,0.6-0.5c0.3,0,0.6,0.2,0.6,0.5c0,0.3-0.2,0.5-0.6,0.5C111.3,30.4,111,30.1,111,29.8 M111,31.6
		c0-0.3,0.2-0.5,0.6-0.5c0.3,0,0.6,0.2,0.6,0.5c0,0.3-0.2,0.5-0.6,0.5C111.3,32.1,111,31.9,111,31.6 M111,33.2
		c0.1-0.2,0.3-0.3,0.5-0.3c0.3,0,0.6,0.2,0.6,0.5c0,0.2-0.2,0.5-0.4,0.5c-0.2,0-0.3-0.1-0.5-0.1C111.2,33.6,111.1,33.4,111,33.2
		 M116.7,13.2c0,0.3-0.3,0.5-0.6,0.5c-0.2,0-0.4-0.1-0.5-0.3C116,13.3,116.3,13.2,116.7,13.2 M115.6,14.9c0-0.3,0.2-0.5,0.6-0.5
		c0.3,0,0.6,0.2,0.6,0.5c0,0.3-0.2,0.5-0.6,0.5C115.8,15.4,115.6,15.2,115.6,14.9 M115.6,16.7c0-0.3,0.2-0.5,0.6-0.5
		c0.3,0,0.6,0.2,0.6,0.5c0,0.3-0.2,0.5-0.6,0.5C115.8,17.2,115.6,17,115.6,16.7 M115.6,18.4c0-0.3,0.2-0.5,0.6-0.5
		c0.3,0,0.6,0.2,0.6,0.5c0,0.3-0.2,0.5-0.6,0.5C115.8,18.9,115.6,18.7,115.6,18.4 M115.6,20.2c0-0.3,0.2-0.5,0.6-0.5
		c0.3,0,0.6,0.2,0.6,0.5c0,0.3-0.2,0.5-0.6,0.5C115.8,20.7,115.6,20.5,115.6,20.2 M115.6,21.9c0-0.3,0.2-0.5,0.6-0.5
		c0.3,0,0.6,0.2,0.6,0.5c0,0.3-0.2,0.5-0.6,0.5C115.8,22.5,115.6,22.2,115.6,21.9 M115.6,23.7c0-0.3,0.2-0.5,0.6-0.5
		c0.3,0,0.6,0.2,0.6,0.5c0,0.3-0.2,0.5-0.6,0.5C115.8,24.2,115.6,24,115.6,23.7 M115.6,25.5c0-0.3,0.2-0.5,0.6-0.5
		c0.3,0,0.6,0.2,0.6,0.5c0,0.3-0.2,0.5-0.6,0.5C115.8,26,115.6,25.7,115.6,25.5 M115.6,27.2c0-0.3,0.2-0.5,0.6-0.5
		c0.3,0,0.6,0.2,0.6,0.5c0,0.3-0.2,0.5-0.6,0.5C115.8,27.7,115.6,27.5,115.6,27.2 M115.6,29c0-0.3,0.2-0.5,0.6-0.5
		c0.3,0,0.6,0.2,0.6,0.5c0,0.3-0.2,0.5-0.6,0.5C115.8,29.5,115.6,29.3,115.6,29 M115.6,30.7c0-0.3,0.2-0.5,0.6-0.5
		c0.3,0,0.6,0.2,0.6,0.5c0,0.3-0.2,0.5-0.6,0.5C115.8,31.2,115.6,31,115.6,30.7 M115.6,32.5c0-0.3,0.2-0.5,0.6-0.5
		c0.3,0,0.6,0.2,0.6,0.5c0,0.3-0.2,0.5-0.6,0.5C115.8,33,115.6,32.8,115.6,32.5 M115.6,34.1c0-0.2,0.3-0.4,0.6-0.4
		c0.3,0,0.5,0.2,0.5,0.4H115.6z M114.1,14c0-0.1,0-0.1,0-0.2c0.3-0.1,0.5-0.2,0.8-0.3c0.2,0.1,0.3,0.3,0.3,0.5
		c0,0.3-0.2,0.5-0.6,0.5C114.3,14.6,114.1,14.3,114.1,14 M114.1,15.8c0-0.3,0.3-0.5,0.6-0.5c0.3,0,0.6,0.2,0.6,0.5
		c0,0.3-0.2,0.5-0.6,0.5C114.3,16.3,114.1,16.1,114.1,15.8 M114.1,17.5c0-0.3,0.3-0.5,0.6-0.5c0.3,0,0.6,0.2,0.6,0.5
		c0,0.3-0.2,0.5-0.6,0.5C114.3,18.1,114.1,17.8,114.1,17.5 M114.1,19.3c0-0.3,0.3-0.5,0.6-0.5c0.3,0,0.6,0.2,0.6,0.5
		c0,0.3-0.2,0.5-0.6,0.5C114.3,19.8,114.1,19.6,114.1,19.3 M114.1,21.1c0-0.3,0.3-0.5,0.6-0.5c0.3,0,0.6,0.2,0.6,0.5
		c0,0.3-0.2,0.5-0.6,0.5C114.3,21.6,114.1,21.3,114.1,21.1 M114.1,22.8c0-0.3,0.3-0.5,0.6-0.5c0.3,0,0.6,0.2,0.6,0.5
		c0,0.3-0.2,0.5-0.6,0.5C114.3,23.3,114.1,23.1,114.1,22.8 M114.1,24.6c0-0.3,0.3-0.5,0.6-0.5c0.3,0,0.6,0.2,0.6,0.5
		c0,0.3-0.2,0.5-0.6,0.5C114.3,25.1,114.1,24.9,114.1,24.6 M114.1,26.3c0-0.3,0.3-0.5,0.6-0.5c0.3,0,0.6,0.2,0.6,0.5
		c0,0.3-0.2,0.5-0.6,0.5C114.3,26.9,114.1,26.6,114.1,26.3 M114.1,28.1c0-0.3,0.3-0.5,0.6-0.5c0.3,0,0.6,0.2,0.6,0.5
		c0,0.3-0.2,0.5-0.6,0.5C114.3,28.6,114.1,28.4,114.1,28.1 M114.1,29.8c0-0.3,0.3-0.5,0.6-0.5c0.3,0,0.6,0.2,0.6,0.5
		c0,0.3-0.2,0.5-0.6,0.5C114.3,30.4,114.1,30.1,114.1,29.8 M114.1,31.6c0-0.3,0.3-0.5,0.6-0.5c0.3,0,0.6,0.2,0.6,0.5
		c0,0.3-0.2,0.5-0.6,0.5C114.3,32.1,114.1,31.9,114.1,31.6 M114.1,33.4c0-0.3,0.3-0.5,0.6-0.5c0.3,0,0.6,0.2,0.6,0.5
		c0,0.3-0.2,0.5-0.6,0.5C114.3,33.9,114.1,33.6,114.1,33.4 M119.8,13.2c0,0.3-0.3,0.5-0.6,0.5c-0.3,0-0.5-0.2-0.6-0.5H119.8z
		 M118.7,14.9c0-0.3,0.2-0.5,0.6-0.5c0.3,0,0.6,0.2,0.6,0.5c0,0.3-0.3,0.5-0.6,0.5C118.9,15.4,118.7,15.2,118.7,14.9 M118.7,16.7
		c0-0.3,0.2-0.5,0.6-0.5c0.3,0,0.6,0.2,0.6,0.5c0,0.3-0.3,0.5-0.6,0.5C118.9,17.2,118.7,17,118.7,16.7 M118.7,18.2
		c0.1-0.2,0.3-0.3,0.5-0.3c0.2,0,0.4,0.1,0.5,0.3H118.7z M118.7,25.5c0-0.3,0.2-0.5,0.4-0.5l0.7,0.6c0,0.3-0.3,0.5-0.6,0.5
		C118.9,26,118.7,25.7,118.7,25.5 M118.7,27.2c0-0.3,0.2-0.5,0.6-0.5c0.3,0,0.6,0.2,0.6,0.5c0,0.3-0.3,0.5-0.6,0.5
		C118.9,27.7,118.7,27.5,118.7,27.2 M118.7,29c0-0.3,0.2-0.5,0.6-0.5c0.3,0,0.6,0.2,0.6,0.5c0,0.3-0.3,0.5-0.6,0.5
		C118.9,29.5,118.7,29.3,118.7,29 M118.7,30.7c0-0.3,0.2-0.5,0.6-0.5c0.3,0,0.6,0.2,0.6,0.5c0,0.3-0.3,0.5-0.6,0.5
		C118.9,31.2,118.7,31,118.7,30.7 M118.7,32.5c0-0.3,0.2-0.5,0.6-0.5c0.3,0,0.6,0.2,0.6,0.5c0,0.3-0.3,0.5-0.6,0.5
		C118.9,33,118.7,32.8,118.7,32.5 M118.7,34.1c0.1-0.2,0.3-0.4,0.6-0.4c0.3,0,0.5,0.2,0.6,0.4H118.7z M117.1,14
		c0-0.3,0.3-0.5,0.6-0.5c0.3,0,0.6,0.2,0.6,0.5c0,0.3-0.3,0.5-0.6,0.5C117.4,14.6,117.1,14.3,117.1,14 M117.1,15.8
		c0-0.3,0.3-0.5,0.6-0.5c0.3,0,0.6,0.2,0.6,0.5c0,0.3-0.3,0.5-0.6,0.5C117.4,16.3,117.1,16.1,117.1,15.8 M117.1,17.5
		c0-0.3,0.3-0.5,0.6-0.5c0.3,0,0.6,0.2,0.6,0.5c0,0.3-0.3,0.5-0.6,0.5C117.4,18.1,117.1,17.8,117.1,17.5 M117.1,19.3
		c0-0.3,0.2-0.5,0.5-0.5v1C117.3,19.8,117.1,19.6,117.1,19.3 M117.1,21.1c0-0.2,0.2-0.5,0.5-0.5v1C117.3,21.5,117.1,21.3,117.1,21.1
		 M117.1,22.8c0-0.2,0.2-0.5,0.5-0.5v1C117.3,23.3,117.1,23.1,117.1,22.8 M117.1,24.6c0-0.3,0.2-0.5,0.5-0.5v0.5h0.7
		c0,0.3-0.3,0.5-0.6,0.5C117.4,25.1,117.1,24.9,117.1,24.6 M117.1,26.3c0-0.3,0.3-0.5,0.6-0.5c0.3,0,0.6,0.2,0.6,0.5
		c0,0.3-0.3,0.5-0.6,0.5C117.4,26.9,117.1,26.6,117.1,26.3 M117.1,28.1c0-0.3,0.3-0.5,0.6-0.5c0.3,0,0.6,0.2,0.6,0.5
		c0,0.3-0.3,0.5-0.6,0.5C117.4,28.6,117.1,28.4,117.1,28.1 M117.1,29.8c0-0.3,0.3-0.5,0.6-0.5c0.3,0,0.6,0.2,0.6,0.5
		c0,0.3-0.3,0.5-0.6,0.5C117.4,30.4,117.1,30.1,117.1,29.8 M117.1,31.6c0-0.3,0.3-0.5,0.6-0.5c0.3,0,0.6,0.2,0.6,0.5
		c0,0.3-0.3,0.5-0.6,0.5C117.4,32.1,117.1,31.9,117.1,31.6 M117.1,33.4c0-0.3,0.3-0.5,0.6-0.5c0.3,0,0.6,0.2,0.6,0.5
		c0,0.3-0.3,0.5-0.6,0.5C117.4,33.9,117.1,33.6,117.1,33.4 M122.8,13.2c0,0.3-0.3,0.5-0.6,0.5c-0.3,0-0.5-0.2-0.6-0.5H122.8z
		 M121.7,14.9c0-0.3,0.3-0.5,0.6-0.5c0.3,0,0.6,0.2,0.6,0.5c0,0.3-0.3,0.5-0.6,0.5C122,15.4,121.7,15.2,121.7,14.9 M121.7,16.7
		c0-0.3,0.3-0.5,0.6-0.5c0.3,0,0.6,0.2,0.6,0.5c0,0.3-0.3,0.5-0.6,0.5C122,17.2,121.7,17,121.7,16.7 M121.8,18.2
		c0.1-0.2,0.3-0.3,0.5-0.3c0.2,0,0.4,0.1,0.5,0.3H121.8z M121.7,27.2C121.7,27.2,121.7,27.2,121.7,27.2c0.1,0.2,0.3,0.4,0.4,0.5
		C121.9,27.7,121.7,27.5,121.7,27.2 M121.7,29c0-0.3,0.3-0.5,0.6-0.5c0.3,0,0.6,0.2,0.6,0.5c0,0.3-0.3,0.5-0.6,0.5
		C122,29.5,121.7,29.3,121.7,29 M121.7,30.7c0-0.3,0.3-0.5,0.6-0.5c0.3,0,0.6,0.2,0.6,0.5c0,0.3-0.3,0.5-0.6,0.5
		C122,31.2,121.7,31,121.7,30.7 M121.7,32.5c0-0.3,0.3-0.5,0.6-0.5c0.3,0,0.6,0.2,0.6,0.5c0,0.3-0.3,0.5-0.6,0.5
		C122,33,121.7,32.8,121.7,32.5 M121.7,34.1c0.1-0.2,0.3-0.4,0.6-0.4c0.3,0,0.5,0.2,0.6,0.4H121.7z M120.2,14c0-0.3,0.3-0.5,0.6-0.5
		c0.3,0,0.6,0.2,0.6,0.5c0,0.3-0.3,0.5-0.6,0.5C120.4,14.6,120.2,14.3,120.2,14 M120.2,15.8c0-0.3,0.3-0.5,0.6-0.5
		c0.3,0,0.6,0.2,0.6,0.5c0,0.3-0.3,0.5-0.6,0.5C120.4,16.3,120.2,16.1,120.2,15.8 M120.2,17.5c0-0.3,0.3-0.5,0.6-0.5
		c0.3,0,0.6,0.2,0.6,0.5c0,0.3-0.3,0.5-0.6,0.5C120.4,18.1,120.2,17.8,120.2,17.5 M120.2,26.3c0-0.1,0-0.3,0.1-0.4l0.8,0.7
		c-0.1,0.1-0.2,0.2-0.4,0.2C120.4,26.9,120.2,26.6,120.2,26.3 M120.2,28.1c0-0.3,0.3-0.5,0.6-0.5c0.3,0,0.6,0.2,0.6,0.5
		c0,0.3-0.3,0.5-0.6,0.5C120.4,28.6,120.2,28.4,120.2,28.1 M120.2,29.8c0-0.3,0.3-0.5,0.6-0.5c0.3,0,0.6,0.2,0.6,0.5
		c0,0.3-0.3,0.5-0.6,0.5C120.4,30.4,120.2,30.1,120.2,29.8 M120.2,31.6c0-0.3,0.3-0.5,0.6-0.5c0.3,0,0.6,0.2,0.6,0.5
		c0,0.3-0.3,0.5-0.6,0.5C120.4,32.1,120.2,31.9,120.2,31.6 M120.2,33.4c0-0.3,0.3-0.5,0.6-0.5c0.3,0,0.6,0.2,0.6,0.5
		c0,0.3-0.3,0.5-0.6,0.5C120.4,33.9,120.2,33.6,120.2,33.4 M125.9,13.2c0,0.3-0.3,0.5-0.6,0.5c-0.3,0-0.6-0.2-0.6-0.5H125.9z
		 M124.8,14.9c0-0.3,0.2-0.5,0.6-0.5c0.3,0,0.6,0.2,0.6,0.5c0,0.3-0.3,0.5-0.6,0.5C125,15.4,124.8,15.2,124.8,14.9 M124.8,16.7
		c0-0.3,0.2-0.5,0.6-0.5c0.3,0,0.6,0.2,0.6,0.5c0,0.3-0.3,0.5-0.6,0.5C125,17.2,124.8,17,124.8,16.7 M124.8,18.2
		c0.1-0.2,0.3-0.3,0.5-0.3c0.3,0,0.6,0.2,0.6,0.5c0,0.3-0.3,0.5-0.6,0.5c-0.2,0-0.4-0.1-0.5-0.2L124.8,18.2L124.8,18.2z M124.8,19.9
		c0.1-0.1,0.3-0.2,0.5-0.2c0.3,0,0.6,0.2,0.6,0.5c0,0.3-0.3,0.5-0.6,0.5c-0.2,0-0.4-0.1-0.5-0.3V19.9z M124.8,29L124.8,29
		c0.4,0,0.8,0,1.1-0.1c0,0,0,0.1,0,0.1c0,0.3-0.3,0.5-0.6,0.5C125,29.5,124.8,29.3,124.8,29 M124.8,30.7c0-0.3,0.2-0.5,0.6-0.5
		c0.3,0,0.6,0.2,0.6,0.5c0,0.3-0.3,0.5-0.6,0.5C125,31.2,124.8,31,124.8,30.7 M124.8,32.5c0-0.3,0.2-0.5,0.6-0.5
		c0.3,0,0.6,0.2,0.6,0.5c0,0.3-0.3,0.5-0.6,0.5C125,33,124.8,32.8,124.8,32.5 M124.8,34.1c0-0.2,0.3-0.4,0.6-0.4
		c0.3,0,0.5,0.2,0.6,0.4H124.8z M123.2,14c0-0.3,0.2-0.5,0.6-0.5c0.3,0,0.6,0.2,0.6,0.5c0,0.3-0.3,0.5-0.6,0.5
		C123.5,14.6,123.2,14.3,123.2,14 M123.2,15.8c0-0.3,0.2-0.5,0.6-0.5c0.3,0,0.6,0.2,0.6,0.5c0,0.3-0.3,0.5-0.6,0.5
		C123.5,16.3,123.2,16.1,123.2,15.8 M123.2,17.5c0-0.3,0.2-0.5,0.6-0.5c0.3,0,0.6,0.2,0.6,0.5c0,0.3-0.3,0.5-0.6,0.5
		C123.5,18.1,123.2,17.8,123.2,17.5 M123.2,29.8c0-0.3,0.2-0.5,0.6-0.5c0.3,0,0.6,0.2,0.6,0.5c0,0.3-0.3,0.5-0.6,0.5
		C123.5,30.4,123.2,30.1,123.2,29.8 M123.2,31.6c0-0.3,0.2-0.5,0.6-0.5c0.3,0,0.6,0.2,0.6,0.5c0,0.3-0.3,0.5-0.6,0.5
		C123.5,32.1,123.2,31.9,123.2,31.6 M123.2,33.4c0-0.3,0.2-0.5,0.6-0.5c0.3,0,0.6,0.2,0.6,0.5c0,0.3-0.3,0.5-0.6,0.5
		C123.5,33.9,123.2,33.6,123.2,33.4 M129,13.2c0,0.3-0.3,0.5-0.6,0.5c-0.3,0-0.5-0.2-0.6-0.5H129z M127.8,14.9
		c0-0.3,0.3-0.5,0.6-0.5c0.3,0,0.6,0.2,0.6,0.5c0,0.3-0.3,0.5-0.6,0.5C128.1,15.4,127.8,15.2,127.8,14.9 M127.8,16.7
		c0-0.3,0.3-0.5,0.6-0.5c0.3,0,0.6,0.2,0.6,0.5c0,0.3-0.3,0.5-0.6,0.5C128.1,17.2,127.8,17,127.8,16.7 M127.8,18.4
		c0-0.3,0.3-0.5,0.6-0.5c0.3,0,0.6,0.2,0.6,0.5c0,0.3-0.3,0.5-0.6,0.5C128.1,18.9,127.8,18.7,127.8,18.4 M127.8,20.2
		c0-0.3,0.3-0.5,0.6-0.5c0.3,0,0.6,0.2,0.6,0.5c0,0.3-0.3,0.5-0.6,0.5C128.1,20.7,127.8,20.5,127.8,20.2 M127.8,29
		c0-0.3,0.3-0.5,0.6-0.5c0.3,0,0.6,0.2,0.6,0.5c0,0.3-0.3,0.5-0.6,0.5C128.1,29.5,127.8,29.3,127.8,29 M127.8,30.7
		c0-0.3,0.3-0.5,0.6-0.5c0.3,0,0.6,0.2,0.6,0.5c0,0.3-0.3,0.5-0.6,0.5C128.1,31.2,127.8,31,127.8,30.7 M127.8,32.5
		c0-0.3,0.3-0.5,0.6-0.5c0.3,0,0.6,0.2,0.6,0.5c0,0.3-0.3,0.5-0.6,0.5C128.1,33,127.8,32.8,127.8,32.5 M127.8,34.1
		c0.1-0.2,0.3-0.4,0.6-0.4c0.3,0,0.5,0.2,0.5,0.4c-0.1,0-0.3,0-0.4,0H127.8z M126.3,14c0-0.3,0.3-0.5,0.6-0.5c0.3,0,0.6,0.2,0.6,0.5
		c0,0.3-0.3,0.5-0.6,0.5C126.5,14.6,126.3,14.3,126.3,14 M126.3,15.8c0-0.3,0.3-0.5,0.6-0.5c0.3,0,0.6,0.2,0.6,0.5
		c0,0.3-0.3,0.5-0.6,0.5C126.5,16.3,126.3,16.1,126.3,15.8 M126.3,17.5c0-0.3,0.3-0.5,0.6-0.5c0.3,0,0.6,0.2,0.6,0.5
		c0,0.3-0.3,0.5-0.6,0.5C126.5,18.1,126.3,17.8,126.3,17.5 M126.3,19.3c0-0.3,0.3-0.5,0.6-0.5c0.3,0,0.6,0.2,0.6,0.5
		c0,0.3-0.3,0.5-0.6,0.5C126.5,19.8,126.3,19.6,126.3,19.3 M126.3,21.1c0-0.3,0.3-0.5,0.6-0.5c0.3,0,0.6,0.2,0.6,0.5
		c0,0.1,0,0.1,0,0.2h-1C126.3,21.2,126.3,21.1,126.3,21.1 M127.2,28.5c-0.1,0-0.2,0.1-0.2,0.1C127,28.6,127.1,28.5,127.2,28.5
		 M126.3,29.8c0-0.3,0.3-0.5,0.6-0.5c0.3,0,0.6,0.2,0.6,0.5c0,0.3-0.3,0.5-0.6,0.5C126.5,30.4,126.3,30.1,126.3,29.8 M126.3,31.6
		c0-0.3,0.3-0.5,0.6-0.5c0.3,0,0.6,0.2,0.6,0.5c0,0.3-0.3,0.5-0.6,0.5C126.5,32.1,126.3,31.9,126.3,31.6 M126.3,33.4
		c0-0.3,0.3-0.5,0.6-0.5c0.3,0,0.6,0.2,0.6,0.5c0,0.3-0.3,0.5-0.6,0.5C126.5,33.9,126.3,33.6,126.3,33.4 M132,13.2
		c0,0.3-0.3,0.5-0.6,0.5c-0.3,0-0.5-0.2-0.6-0.5H132z M130.9,14.9c0-0.3,0.3-0.5,0.6-0.5c0.3,0,0.6,0.2,0.6,0.5
		c0,0.3-0.3,0.5-0.6,0.5C131.1,15.4,130.9,15.2,130.9,14.9 M130.9,16.7c0-0.3,0.3-0.5,0.6-0.5c0.3,0,0.6,0.2,0.6,0.5
		c0,0.3-0.3,0.5-0.6,0.5C131.1,17.2,130.9,17,130.9,16.7 M130.9,18.4c0-0.3,0.3-0.5,0.6-0.5c0.3,0,0.6,0.2,0.6,0.5
		c0,0.3-0.3,0.5-0.6,0.5C131.1,18.9,130.9,18.7,130.9,18.4 M130.9,20.2c0-0.3,0.3-0.5,0.6-0.5c0.3,0,0.6,0.2,0.6,0.5
		c0,0.3-0.3,0.5-0.6,0.5C131.1,20.7,130.9,20.5,130.9,20.2 M130.9,27.2c0,0,0-0.1,0-0.1h1.1c0,0,0,0.1,0,0.1c0,0.3-0.3,0.5-0.6,0.5
		C131.1,27.7,130.9,27.5,130.9,27.2 M130.9,29c0-0.3,0.3-0.5,0.6-0.5c0.3,0,0.6,0.2,0.6,0.5c0,0.3-0.3,0.5-0.6,0.5
		C131.1,29.5,130.9,29.3,130.9,29 M130.9,30.7c0-0.3,0.3-0.5,0.6-0.5c0.3,0,0.6,0.2,0.6,0.5c0,0.3-0.3,0.5-0.6,0.5
		C131.1,31.2,130.9,31,130.9,30.7 M130.9,32.5c0-0.3,0.3-0.5,0.6-0.5c0.3,0,0.6,0.2,0.6,0.5c0,0.3-0.3,0.5-0.6,0.5
		C131.1,33,130.9,32.8,130.9,32.5 M131.2,33.8c0.1,0,0.1,0,0.2-0.1C131.3,33.7,131.2,33.7,131.2,33.8 M129.3,14
		c0-0.3,0.3-0.5,0.6-0.5c0.3,0,0.6,0.2,0.6,0.5c0,0.3-0.2,0.5-0.6,0.5C129.6,14.6,129.3,14.3,129.3,14 M129.3,15.8
		c0-0.3,0.3-0.5,0.6-0.5c0.3,0,0.6,0.2,0.6,0.5c0,0.3-0.2,0.5-0.6,0.5C129.6,16.3,129.3,16.1,129.3,15.8 M129.3,17.5
		c0-0.3,0.3-0.5,0.6-0.5c0.3,0,0.6,0.2,0.6,0.5c0,0.3-0.2,0.5-0.6,0.5C129.6,18.1,129.3,17.8,129.3,17.5 M129.3,19.3
		c0-0.3,0.3-0.5,0.6-0.5c0.3,0,0.6,0.2,0.6,0.5c0,0.3-0.2,0.5-0.6,0.5C129.6,19.8,129.3,19.6,129.3,19.3 M129.3,21.1
		c0-0.3,0.3-0.5,0.6-0.5c0.3,0,0.6,0.2,0.6,0.5c0,0.1,0,0.1,0,0.2h-1.1C129.4,21.2,129.3,21.1,129.3,21.1 M129.3,28.1
		c0-0.3,0.3-0.5,0.6-0.5c0.3,0,0.6,0.2,0.6,0.5c0,0.3-0.2,0.5-0.6,0.5C129.6,28.6,129.3,28.4,129.3,28.1 M129.3,29.8
		c0-0.3,0.3-0.5,0.6-0.5c0.3,0,0.6,0.2,0.6,0.5c0,0.3-0.2,0.5-0.6,0.5C129.6,30.4,129.3,30.1,129.3,29.8 M129.3,31.6
		c0-0.3,0.3-0.5,0.6-0.5c0.3,0,0.6,0.2,0.6,0.5c0,0.3-0.2,0.5-0.6,0.5C129.6,32.1,129.3,31.9,129.3,31.6 M129.3,33.4
		c0-0.3,0.3-0.5,0.6-0.5c0.3,0,0.6,0.2,0.6,0.5c0,0.3-0.2,0.5-0.6,0.5C129.6,33.9,129.3,33.6,129.3,33.4 M135,13.3
		c-0.1,0.2-0.3,0.4-0.6,0.4c-0.3,0-0.5-0.2-0.6-0.5h0.1C134.3,13.2,134.7,13.2,135,13.3 M133.9,14.9c0-0.3,0.3-0.5,0.6-0.5
		c0.3,0,0.6,0.2,0.6,0.5c0,0.3-0.3,0.5-0.6,0.5C134.2,15.4,133.9,15.2,133.9,14.9 M133.9,16.7c0-0.3,0.3-0.5,0.6-0.5
		c0.3,0,0.6,0.2,0.6,0.5c0,0.3-0.3,0.5-0.6,0.5C134.2,17.2,133.9,17,133.9,16.7 M133.9,18.4c0-0.3,0.3-0.5,0.6-0.5
		c0.3,0,0.6,0.2,0.6,0.5c0,0.3-0.3,0.5-0.6,0.5C134.2,18.9,133.9,18.7,133.9,18.4 M133.9,20.2c0-0.3,0.3-0.5,0.6-0.5
		c0.3,0,0.6,0.2,0.6,0.5c0,0.3-0.3,0.5-0.6,0.5C134.2,20.7,133.9,20.5,133.9,20.2 M133.9,27.2c0,0,0-0.1,0-0.1h1.1c0,0,0,0.1,0,0.1
		c0,0.3-0.3,0.5-0.6,0.5C134.2,27.7,133.9,27.5,133.9,27.2 M133.9,29c0-0.3,0.3-0.5,0.6-0.5c0.3,0,0.6,0.2,0.6,0.5
		c0,0.3-0.3,0.5-0.6,0.5C134.2,29.5,133.9,29.3,133.9,29 M133.9,30.7c0-0.3,0.3-0.5,0.6-0.5c0.3,0,0.6,0.2,0.6,0.5
		c0,0.3-0.3,0.5-0.6,0.5C134.2,31.2,133.9,31,133.9,30.7 M133.9,32.5c0-0.3,0.3-0.5,0.6-0.5c0.1,0,0.1,0,0.2,0
		C134.4,32.2,134.2,32.3,133.9,32.5C133.9,32.5,133.9,32.5,133.9,32.5 M132.4,14c0-0.3,0.2-0.5,0.6-0.5c0.3,0,0.6,0.2,0.6,0.5
		c0,0.3-0.3,0.5-0.6,0.5C132.7,14.6,132.4,14.3,132.4,14 M132.4,15.8c0-0.3,0.2-0.5,0.6-0.5c0.3,0,0.6,0.2,0.6,0.5
		c0,0.3-0.3,0.5-0.6,0.5C132.7,16.3,132.4,16.1,132.4,15.8 M132.4,17.5c0-0.3,0.2-0.5,0.6-0.5c0.3,0,0.6,0.2,0.6,0.5
		c0,0.3-0.3,0.5-0.6,0.5C132.7,18.1,132.4,17.8,132.4,17.5 M132.4,19.3c0-0.3,0.2-0.5,0.6-0.5c0.3,0,0.6,0.2,0.6,0.5
		c0,0.3-0.3,0.5-0.6,0.5C132.7,19.8,132.4,19.6,132.4,19.3 M132.4,21.1c0-0.3,0.2-0.5,0.6-0.5c0.3,0,0.6,0.2,0.6,0.5
		c0,0.1,0,0.1,0,0.2h-1C132.4,21.2,132.4,21.1,132.4,21.1 M132.4,28.1c0-0.3,0.2-0.5,0.6-0.5c0.3,0,0.6,0.2,0.6,0.5
		c0,0.3-0.3,0.5-0.6,0.5C132.7,28.6,132.4,28.4,132.4,28.1 M132.4,29.8c0-0.3,0.2-0.5,0.6-0.5c0.3,0,0.6,0.2,0.6,0.5
		c0,0.3-0.3,0.5-0.6,0.5C132.7,30.4,132.4,30.1,132.4,29.8 M132.4,31.6c0-0.3,0.2-0.5,0.6-0.5c0.3,0,0.6,0.2,0.6,0.5
		c0,0.3-0.3,0.5-0.6,0.5C132.7,32.1,132.4,31.9,132.4,31.6 M132.4,33.3c0-0.3,0.3-0.5,0.6-0.5c0.1,0,0.2,0,0.3,0.1
		C133,33.1,132.7,33.2,132.4,33.3 M137,14.9c0-0.2,0.1-0.4,0.3-0.5c0.1,0.3,0.2,0.6,0.3,1c0,0,0,0-0.1,0
		C137.2,15.4,137,15.2,137,14.9 M137,16.7c0-0.3,0.3-0.5,0.6-0.5c0.1,0,0.2,0,0.2,0c0,0.3,0.1,0.6,0.1,0.9c-0.1,0.1-0.2,0.1-0.3,0.1
		C137.2,17.2,137,17,137,16.7 M137,18.4c0-0.3,0.3-0.5,0.6-0.5c0.1,0,0.2,0,0.3,0.1v0.9c-0.1,0.1-0.2,0.1-0.3,0.1
		C137.2,18.9,137,18.7,137,18.4 M137,20.2c0-0.3,0.3-0.5,0.6-0.5c0.1,0,0.2,0,0.3,0.1v0.9c-0.1,0-0.2,0.1-0.3,0.1
		C137.2,20.7,137,20.5,137,20.2 M137,27.2c0,0,0-0.1,0-0.1h0.7c0,0.2-0.1,0.4-0.2,0.6C137.2,27.7,137,27.5,137,27.2 M137,29
		c0-0.2,0.1-0.3,0.3-0.4c-0.1,0.2-0.2,0.4-0.3,0.6C137,29,137,29,137,29 M135.5,14c0-0.3,0.3-0.5,0.6-0.5h0c0.1,0,0.2,0.1,0.4,0.1
		c0.1,0.1,0.2,0.2,0.2,0.4c0,0.3-0.2,0.5-0.6,0.5C135.7,14.6,135.5,14.3,135.5,14 M135.5,15.8c0-0.3,0.3-0.5,0.6-0.5
		c0.3,0,0.6,0.2,0.6,0.5c0,0.3-0.2,0.5-0.6,0.5C135.7,16.3,135.5,16.1,135.5,15.8 M135.5,17.5c0-0.3,0.3-0.5,0.6-0.5
		c0.3,0,0.6,0.2,0.6,0.5c0,0.3-0.2,0.5-0.6,0.5C135.7,18.1,135.5,17.8,135.5,17.5 M135.5,19.3c0-0.3,0.3-0.5,0.6-0.5
		c0.3,0,0.6,0.2,0.6,0.5c0,0.3-0.2,0.5-0.6,0.5C135.7,19.8,135.5,19.6,135.5,19.3 M135.5,21.1c0-0.3,0.3-0.5,0.6-0.5
		c0.3,0,0.6,0.2,0.6,0.5c0,0.1,0,0.1,0,0.2h-1C135.5,21.2,135.5,21.1,135.5,21.1 M135.5,28.1c0-0.3,0.3-0.5,0.6-0.5
		c0.3,0,0.6,0.2,0.6,0.5c0,0.3-0.2,0.5-0.6,0.5C135.7,28.6,135.5,28.4,135.5,28.1 M135.5,29.8c0-0.3,0.3-0.5,0.6-0.5
		c0.3,0,0.5,0.2,0.6,0.5c-0.1,0.2-0.2,0.3-0.4,0.5c-0.1,0-0.1,0-0.2,0C135.7,30.4,135.5,30.1,135.5,29.8 M113.3,14.4
		c0.2,0.1,0.4,0.3,0.4,0.5c0,0.3-0.3,0.5-0.6,0.5c-0.3,0-0.5-0.2-0.6-0.4C112.8,14.8,113,14.6,113.3,14.4"/>
	<g>
		<path style="fill:#1B3E90;" d="M151.3,16.1c-0.3,0-0.6,0.2-0.6,0.5c0,0.3,0.3,0.5,0.6,0.5c0.3,0,0.6-0.2,0.6-0.5
			C151.9,16.4,151.6,16.1,151.3,16.1z"/>
		<path style="fill:#1B3E90;" d="M151.3,21.4c-0.3,0-0.6,0.2-0.6,0.5c0,0.3,0.3,0.5,0.6,0.5c0.3,0,0.6-0.2,0.6-0.5
			C151.9,21.6,151.6,21.4,151.3,21.4z"/>
		<path style="fill:#1B3E90;" d="M151.3,17.9c-0.3,0-0.6,0.2-0.6,0.5c0,0.3,0.3,0.5,0.6,0.5c0.3,0,0.6-0.2,0.6-0.5
			C151.9,18.1,151.6,17.9,151.3,17.9z"/>
		<path style="fill:#1B3E90;" d="M151.3,19.7c-0.3,0-0.6,0.2-0.6,0.5c0,0.3,0.3,0.5,0.6,0.5c0.3,0,0.6-0.2,0.6-0.5
			C151.9,19.9,151.6,19.7,151.3,19.7z"/>
		<path style="fill:#1B3E90;" d="M152.8,32.8c-0.3,0-0.6,0.2-0.6,0.5c0,0.3,0.2,0.5,0.6,0.5c0.3,0,0.6-0.2,0.6-0.5
			C153.4,33.1,153.1,32.8,152.8,32.8z"/>
		<path style="fill:#1B3E90;" d="M151.4,14.4c-0.2,0.2-0.5,0.4-0.7,0.6c0,0.3,0.3,0.5,0.6,0.5c0.3,0,0.6-0.2,0.6-0.5
			C151.9,14.7,151.7,14.5,151.4,14.4z"/>
		<path style="fill:#1B3E90;" d="M149.8,22.3c-0.3,0-0.6,0.2-0.6,0.5c0,0.3,0.3,0.5,0.6,0.5c0.3,0,0.6-0.2,0.6-0.5
			C150.3,22.5,150.1,22.3,149.8,22.3z"/>
		<path style="fill:#1B3E90;" d="M152.8,31.1c-0.3,0-0.6,0.2-0.6,0.5c0,0.3,0.2,0.5,0.6,0.5c0.3,0,0.6-0.2,0.6-0.5
			C153.4,31.3,153.1,31.1,152.8,31.1z"/>
		<path style="fill:#1B3E90;" d="M152.8,22.3c-0.3,0-0.6,0.2-0.6,0.5c0,0.3,0.2,0.5,0.6,0.5c0.3,0,0.6-0.2,0.6-0.5
			C153.4,22.5,153.1,22.3,152.8,22.3z"/>
		<path style="fill:#1B3E90;" d="M152.8,29.3c-0.3,0-0.6,0.2-0.6,0.5c0,0.3,0.2,0.5,0.6,0.5c0.3,0,0.6-0.2,0.6-0.5
			C153.4,29.5,153.1,29.3,152.8,29.3z"/>
		<path style="fill:#1B3E90;" d="M152.8,27.6c-0.3,0-0.6,0.2-0.6,0.5c0,0.3,0.2,0.5,0.6,0.5c0.3,0,0.6-0.2,0.6-0.5
			C153.4,27.8,153.1,27.6,152.8,27.6z"/>
		<path style="fill:#1B3E90;" d="M152.8,24c-0.3,0-0.6,0.2-0.6,0.5c0,0.3,0.2,0.5,0.6,0.5c0.3,0,0.6-0.2,0.6-0.5
			C153.4,24.3,153.1,24,152.8,24z"/>
		<path style="fill:#1B3E90;" d="M149.7,16.3C149.7,16.3,149.7,16.3,149.7,16.3c0.4,0,0.6-0.2,0.6-0.5c0-0.1,0-0.2-0.1-0.3
			C150,15.8,149.9,16,149.7,16.3z"/>
		<path style="fill:#1B3E90;" d="M151.3,33.7c-0.2,0-0.4,0.1-0.5,0.2c0.3,0.1,0.7,0.1,1,0.2C151.7,33.9,151.5,33.7,151.3,33.7z"/>
		<path style="fill:#1B3E90;" d="M155.9,22.3c-0.3,0-0.6,0.2-0.6,0.5c0,0.3,0.3,0.5,0.6,0.5c0.3,0,0.6-0.2,0.6-0.5
			C156.4,22.5,156.2,22.3,155.9,22.3z"/>
		<path style="fill:#1B3E90;" d="M149.8,20.5c-0.3,0-0.6,0.2-0.6,0.5c0,0.3,0.3,0.5,0.6,0.5c0.3,0,0.6-0.2,0.6-0.5
			C150.3,20.8,150.1,20.5,149.8,20.5z"/>
		<path style="fill:#1B3E90;" d="M151.3,23.2c-0.3,0-0.6,0.2-0.6,0.5c0,0.3,0.3,0.5,0.6,0.5c0.3,0,0.6-0.2,0.6-0.5
			C151.9,23.4,151.6,23.2,151.3,23.2z"/>
		<path style="fill:#1B3E90;" d="M149.8,18.8c-0.3,0-0.6,0.2-0.6,0.5c0,0.3,0.3,0.5,0.6,0.5c0.3,0,0.6-0.2,0.6-0.5
			C150.3,19,150.1,18.8,149.8,18.8z"/>
		<path style="fill:#1B3E90;" d="M151.3,31.9c-0.3,0-0.6,0.2-0.6,0.5c0,0.3,0.3,0.5,0.6,0.5c0.3,0,0.6-0.2,0.6-0.5
			C151.9,32.2,151.6,31.9,151.3,31.9z"/>
		<path style="fill:#1B3E90;" d="M151.3,26.7c-0.3,0-0.6,0.2-0.6,0.5c0,0.3,0.3,0.5,0.6,0.5c0.3,0,0.6-0.2,0.6-0.5
			C151.9,26.9,151.6,26.7,151.3,26.7z"/>
		<path style="fill:#1B3E90;" d="M151.3,24.9c-0.3,0-0.6,0.2-0.6,0.5c0,0.3,0.3,0.5,0.6,0.5c0.3,0,0.6-0.2,0.6-0.5
			C151.9,25.2,151.6,24.9,151.3,24.9z"/>
		<path style="fill:#1B3E90;" d="M151.3,30.2c-0.3,0-0.6,0.2-0.6,0.5c0,0.3,0.3,0.5,0.6,0.5c0.3,0,0.6-0.2,0.6-0.5
			C151.9,30.4,151.6,30.2,151.3,30.2z"/>
		<path style="fill:#1B3E90;" d="M151.3,28.4c-0.3,0-0.6,0.2-0.6,0.5c0,0.3,0.3,0.5,0.6,0.5c0.3,0,0.6-0.2,0.6-0.5
			C151.9,28.7,151.6,28.4,151.3,28.4z"/>
		<path style="fill:#1B3E90;" d="M152.8,25.8c-0.3,0-0.6,0.2-0.6,0.5c0,0.3,0.2,0.5,0.6,0.5c0.3,0,0.6-0.2,0.6-0.5
			C153.4,26,153.1,25.8,152.8,25.8z"/>
		<path style="fill:#1B3E90;" d="M154.3,14.4c-0.3,0-0.6,0.2-0.6,0.5c0,0.3,0.3,0.5,0.6,0.5c0.3,0,0.6-0.2,0.6-0.5
			C154.9,14.6,154.7,14.4,154.3,14.4z"/>
		<path style="fill:#1B3E90;" d="M154.3,16.1c-0.3,0-0.6,0.2-0.6,0.5c0,0.3,0.3,0.5,0.6,0.5c0.3,0,0.6-0.2,0.6-0.5
			C154.9,16.4,154.7,16.1,154.3,16.1z"/>
		<path style="fill:#1B3E90;" d="M154.3,19.7c-0.3,0-0.6,0.2-0.6,0.5c0,0.3,0.3,0.5,0.6,0.5c0.3,0,0.6-0.2,0.6-0.5
			C154.9,19.9,154.7,19.7,154.3,19.7z"/>
		<path style="fill:#1B3E90;" d="M154.3,17.9c-0.3,0-0.6,0.2-0.6,0.5c0,0.3,0.3,0.5,0.6,0.5c0.3,0,0.6-0.2,0.6-0.5
			C154.9,18.1,154.7,17.9,154.3,17.9z"/>
		<path style="fill:#1B3E90;" d="M155.9,32.8c-0.3,0-0.6,0.2-0.6,0.5c0,0.3,0.3,0.5,0.6,0.5c0.3,0,0.6-0.2,0.6-0.5
			C156.4,33.1,156.2,32.8,155.9,32.8z"/>
		<path style="fill:#1B3E90;" d="M155.9,29.3c-0.3,0-0.6,0.2-0.6,0.5c0,0.3,0.3,0.5,0.6,0.5c0.3,0,0.6-0.2,0.6-0.5
			C156.4,29.5,156.2,29.3,155.9,29.3z"/>
		<path style="fill:#1B3E90;" d="M155.9,25.8c-0.3,0-0.6,0.2-0.6,0.5c0,0.3,0.3,0.5,0.6,0.5c0.3,0,0.6-0.2,0.6-0.5
			C156.4,26,156.2,25.8,155.9,25.8z"/>
		<path style="fill:#1B3E90;" d="M155.9,24c-0.3,0-0.6,0.2-0.6,0.5c0,0.3,0.3,0.5,0.6,0.5c0.3,0,0.6-0.2,0.6-0.5
			C156.4,24.3,156.2,24,155.9,24z"/>
		<path style="fill:#1B3E90;" d="M155.9,27.6c-0.3,0-0.6,0.2-0.6,0.5c0,0.3,0.3,0.5,0.6,0.5c0.3,0,0.6-0.2,0.6-0.5
			C156.4,27.8,156.2,27.6,155.9,27.6z"/>
		<path style="fill:#1B3E90;" d="M155.9,31.1c-0.3,0-0.6,0.2-0.6,0.5c0,0.3,0.3,0.5,0.6,0.5c0.3,0,0.6-0.2,0.6-0.5
			C156.4,31.3,156.2,31.1,155.9,31.1z"/>
		<path style="fill:#1B3E90;" d="M154.3,21.4c-0.3,0-0.6,0.2-0.6,0.5c0,0.3,0.3,0.5,0.6,0.5c0.3,0,0.6-0.2,0.6-0.5
			C154.9,21.6,154.7,21.4,154.3,21.4z"/>
		<path style="fill:#1B3E90;" d="M154.3,28.4c-0.3,0-0.6,0.2-0.6,0.5c0,0.3,0.3,0.5,0.6,0.5c0.3,0,0.6-0.2,0.6-0.5
			C154.9,28.7,154.7,28.4,154.3,28.4z"/>
		<path style="fill:#1B3E90;" d="M153.1,13.6c-0.3,0.1-0.5,0.2-0.8,0.3c0,0.1,0,0.1,0,0.2c0,0.3,0.2,0.5,0.6,0.5
			c0.3,0,0.6-0.2,0.6-0.5C153.4,13.8,153.2,13.6,153.1,13.6z"/>
		<path style="fill:#1B3E90;" d="M154.3,33.7c-0.3,0-0.5,0.2-0.6,0.4h1.1C154.8,33.9,154.6,33.7,154.3,33.7z"/>
		<path style="fill:#1B3E90;" d="M154.3,23.2c-0.3,0-0.6,0.2-0.6,0.5c0,0.3,0.3,0.5,0.6,0.5c0.3,0,0.6-0.2,0.6-0.5
			C154.9,23.4,154.7,23.2,154.3,23.2z"/>
		<path style="fill:#1B3E90;" d="M152.8,17c-0.3,0-0.6,0.2-0.6,0.5c0,0.3,0.2,0.5,0.6,0.5c0.3,0,0.6-0.2,0.6-0.5
			C153.4,17.3,153.1,17,152.8,17z"/>
		<path style="fill:#1B3E90;" d="M152.8,18.8c-0.3,0-0.6,0.2-0.6,0.5c0,0.3,0.2,0.5,0.6,0.5c0.3,0,0.6-0.2,0.6-0.5
			C153.4,19,153.1,18.8,152.8,18.8z"/>
		<path style="fill:#1B3E90;" d="M152.8,15.3c-0.3,0-0.6,0.2-0.6,0.5c0,0.3,0.2,0.5,0.6,0.5c0.3,0,0.6-0.2,0.6-0.5
			C153.4,15.5,153.1,15.3,152.8,15.3z"/>
		<path style="fill:#1B3E90;" d="M154.3,24.9c-0.3,0-0.6,0.2-0.6,0.5c0,0.3,0.3,0.5,0.6,0.5c0.3,0,0.6-0.2,0.6-0.5
			C154.9,25.2,154.7,24.9,154.3,24.9z"/>
		<path style="fill:#1B3E90;" d="M154.3,26.7c-0.3,0-0.6,0.2-0.6,0.5c0,0.3,0.3,0.5,0.6,0.5c0.3,0,0.6-0.2,0.6-0.5
			C154.9,26.9,154.7,26.7,154.3,26.7z"/>
		<path style="fill:#1B3E90;" d="M152.8,20.5c-0.3,0-0.6,0.2-0.6,0.5c0,0.3,0.2,0.5,0.6,0.5c0.3,0,0.6-0.2,0.6-0.5
			C153.4,20.8,153.1,20.5,152.8,20.5z"/>
		<path style="fill:#1B3E90;" d="M154.3,30.2c-0.3,0-0.6,0.2-0.6,0.5c0,0.3,0.3,0.5,0.6,0.5c0.3,0,0.6-0.2,0.6-0.5
			C154.9,30.4,154.7,30.2,154.3,30.2z"/>
		<path style="fill:#1B3E90;" d="M154.3,31.9c-0.3,0-0.6,0.2-0.6,0.5c0,0.3,0.3,0.5,0.6,0.5c0.3,0,0.6-0.2,0.6-0.5
			C154.9,32.2,154.7,31.9,154.3,31.9z"/>
		<path style="fill:#1B3E90;" d="M149.8,17c-0.2,0-0.4,0.1-0.5,0.2c0,0.1-0.1,0.2-0.1,0.3c0,0.3,0.3,0.5,0.6,0.5
			c0.3,0,0.6-0.2,0.6-0.5C150.3,17.3,150.1,17,149.8,17z"/>
		<ellipse style="fill:#1B3E90;" cx="149.8" cy="24.6" rx="0.6" ry="0.5"/>
		<path style="fill:#1B3E90;" d="M166.6,18.9c0.3,0,0.6-0.2,0.6-0.5c0-0.3-0.2-0.5-0.6-0.5c-0.3,0-0.6,0.2-0.6,0.5
			C166,18.7,166.3,18.9,166.6,18.9z"/>
		<path style="fill:#1B3E90;" d="M166.6,15.4c0.3,0,0.6-0.2,0.6-0.5c0-0.3-0.2-0.5-0.6-0.5c-0.3,0-0.6,0.2-0.6,0.5
			C166,15.2,166.3,15.4,166.6,15.4z"/>
		<path style="fill:#1B3E90;" d="M166.6,13.7c0.3,0,0.6-0.2,0.6-0.5H166C166,13.5,166.3,13.7,166.6,13.7z"/>
		<path style="fill:#1B3E90;" d="M168.1,19.8c0.3,0,0.6-0.2,0.6-0.5c0-0.3-0.3-0.5-0.6-0.5c-0.3,0-0.6,0.2-0.6,0.5
			C167.5,19.6,167.8,19.8,168.1,19.8z"/>
		<path style="fill:#1B3E90;" d="M163.5,15.4c0.3,0,0.6-0.2,0.6-0.5c0-0.3-0.2-0.5-0.6-0.5c-0.3,0-0.6,0.2-0.6,0.5
			C162.9,15.2,163.2,15.4,163.5,15.4z"/>
		<path style="fill:#1B3E90;" d="M163.5,13.7c0.3,0,0.6-0.2,0.6-0.5h-1.1C163,13.5,163.2,13.7,163.5,13.7z"/>
		<path style="fill:#1B3E90;" d="M166.4,20.7c0.1,0,0.1,0,0.2,0c0.3,0,0.6-0.2,0.6-0.5c0-0.3-0.2-0.5-0.6-0.5
			c-0.3,0-0.6,0.2-0.6,0.5c0,0,0,0.1,0,0.1L166.4,20.7z"/>
		<path style="fill:#1B3E90;" d="M165,18.1c0.3,0,0.6-0.2,0.6-0.5c0-0.3-0.2-0.5-0.6-0.5c-0.3,0-0.6,0.2-0.6,0.5
			C164.5,17.8,164.7,18.1,165,18.1z"/>
		<path style="fill:#1B3E90;" d="M165,16.3c0.3,0,0.6-0.2,0.6-0.5c0-0.3-0.2-0.5-0.6-0.5c-0.3,0-0.6,0.2-0.6,0.5
			C164.5,16.1,164.7,16.3,165,16.3z"/>
		<path style="fill:#1B3E90;" d="M165,14.6c0.3,0,0.6-0.2,0.6-0.5c0-0.3-0.2-0.5-0.6-0.5c-0.3,0-0.6,0.2-0.6,0.5
			C164.5,14.3,164.7,14.6,165,14.6z"/>
		<path style="fill:#1B3E90;" d="M168.1,21.6c0.3,0,0.6-0.2,0.6-0.5c0-0.3-0.3-0.5-0.6-0.5c-0.3,0-0.6,0.2-0.6,0.5
			C167.5,21.3,167.8,21.6,168.1,21.6z"/>
		<path style="fill:#1B3E90;" d="M158.9,26.9c0.2,0,0.4-0.1,0.5-0.3l-0.8-0.6c-0.2,0.1-0.3,0.3-0.3,0.5
			C158.4,26.6,158.6,26.9,158.9,26.9z"/>
		<path style="fill:#1B3E90;" d="M163.5,17.9c-0.2,0-0.4,0.1-0.5,0.3h1C163.9,18,163.7,17.9,163.5,17.9z"/>
		<path style="fill:#1B3E90;" d="M160.5,17.9c-0.2,0-0.4,0.1-0.5,0.3h1C160.9,18,160.7,17.9,160.5,17.9z"/>
		<path style="fill:#1B3E90;" d="M172.7,13.7c0.3,0,0.5-0.2,0.5-0.4c-0.3-0.1-0.7-0.1-1.1-0.1h0C172.1,13.5,172.4,13.7,172.7,13.7z"
			/>
		<path style="fill:#1B3E90;" d="M168.1,14.6c0.3,0,0.6-0.2,0.6-0.5c0-0.3-0.3-0.5-0.6-0.5c-0.3,0-0.6,0.2-0.6,0.5
			C167.5,14.3,167.8,14.6,168.1,14.6z"/>
		<path style="fill:#1B3E90;" d="M168.1,16.3c0.3,0,0.6-0.2,0.6-0.5c0-0.3-0.3-0.5-0.6-0.5c-0.3,0-0.6,0.2-0.6,0.5
			C167.5,16.1,167.8,16.3,168.1,16.3z"/>
		<path style="fill:#1B3E90;" d="M160.5,27.7c0.1,0,0.3-0.1,0.4-0.1l-0.9-0.7c-0.1,0.1-0.1,0.2-0.1,0.3
			C159.9,27.5,160.1,27.7,160.5,27.7z"/>
		<path style="fill:#1B3E90;" d="M168.1,18.1c0.3,0,0.6-0.2,0.6-0.5c0-0.3-0.3-0.5-0.6-0.5c-0.3,0-0.6,0.2-0.6,0.5
			C167.5,17.8,167.8,18.1,168.1,18.1z"/>
		<path style="fill:#1B3E90;" d="M168.1,22.3c-0.1,0-0.2,0-0.3,0.1l0.7,0.8c0.1-0.1,0.1-0.2,0.1-0.3
			C168.7,22.5,168.4,22.3,168.1,22.3z"/>
		<path style="fill:#1B3E90;" d="M165,18.8c-0.1,0-0.2,0-0.2,0.1l0.7,0.8c0.1-0.1,0.1-0.2,0.1-0.3C165.6,19,165.4,18.8,165,18.8z"/>
		<path style="fill:#1B3E90;" d="M162,28.6c0.1,0,0.1,0,0.2,0l-0.7-0.5c0,0,0,0,0,0C161.4,28.4,161.7,28.6,162,28.6z"/>
		<path style="fill:#1B3E90;" d="M166.6,17.2c0.3,0,0.6-0.2,0.6-0.5c0-0.3-0.2-0.5-0.6-0.5c-0.3,0-0.6,0.2-0.6,0.5
			C166,17,166.3,17.2,166.6,17.2z"/>
		<path style="fill:#1B3E90;" d="M154.3,13.7c0.3,0,0.5-0.2,0.6-0.5c-0.4,0-0.7,0.1-1.1,0.1C153.9,13.5,154.1,13.7,154.3,13.7z"/>
		<path style="fill:#1B3E90;" d="M157.4,17.2c0.3,0,0.6-0.2,0.6-0.5c0-0.3-0.3-0.5-0.6-0.5c-0.3,0-0.6,0.2-0.6,0.5
			C156.8,17,157.1,17.2,157.4,17.2z"/>
		<path style="fill:#1B3E90;" d="M157,21.6c-0.1,0.1-0.1,0.2-0.1,0.3c0,0.1,0,0.2,0.1,0.3V21.6z"/>
		<path style="fill:#1B3E90;" d="M157,19.8c-0.1,0.1-0.1,0.2-0.1,0.3c0,0.1,0,0.3,0.1,0.3V19.8z"/>
		<path style="fill:#1B3E90;" d="M157,18.2h0.9c-0.1-0.2-0.3-0.3-0.5-0.3c-0.3,0-0.6,0.2-0.6,0.5c0,0.1,0,0.2,0.1,0.3V18.2z"/>
		<path style="fill:#1B3E90;" d="M157,23.4c-0.1,0.1-0.1,0.2-0.1,0.3c0,0.1,0,0.2,0.1,0.3V23.4z"/>
		<path style="fill:#1B3E90;" d="M149.8,25.8c-0.3,0-0.6,0.2-0.6,0.5c0,0.3,0.3,0.5,0.6,0.5c0.3,0,0.6-0.2,0.6-0.5
			C150.3,26,150.1,25.8,149.8,25.8z"/>
		<path style="fill:#1B3E90;" d="M149.8,27.6c-0.3,0-0.6,0.2-0.6,0.5c0,0.3,0.3,0.5,0.6,0.5c0.3,0,0.6-0.2,0.6-0.5
			C150.3,27.8,150.1,27.6,149.8,27.6z"/>
		<path style="fill:#1B3E90;" d="M163.5,17.2c0.3,0,0.6-0.2,0.6-0.5c0-0.3-0.2-0.5-0.6-0.5c-0.3,0-0.6,0.2-0.6,0.5
			C162.9,17,163.2,17.2,163.5,17.2z"/>
		<path style="fill:#1B3E90;" d="M149.8,32.8c-0.3,0-0.5,0.2-0.5,0.4c0,0.1,0.1,0.2,0.1,0.3c0.3,0.1,0.5,0.2,0.8,0.3
			c0.1-0.1,0.2-0.2,0.2-0.4C150.3,33.1,150.1,32.8,149.8,32.8z"/>
		<path style="fill:#1B3E90;" d="M149.8,29.3c-0.3,0-0.6,0.2-0.6,0.5c0,0.3,0.3,0.5,0.6,0.5c0.3,0,0.6-0.2,0.6-0.5
			C150.3,29.5,150.1,29.3,149.8,29.3z"/>
		<path style="fill:#1B3E90;" d="M149.8,31.1c-0.3,0-0.6,0.2-0.6,0.5c0,0.3,0.3,0.5,0.6,0.5c0.3,0,0.6-0.2,0.6-0.5
			C150.3,31.3,150.1,31.1,149.8,31.1z"/>
		<path style="fill:#1B3E90;" d="M162,18.1c0.3,0,0.6-0.2,0.6-0.5c0-0.3-0.3-0.5-0.6-0.5c-0.3,0-0.6,0.2-0.6,0.5
			C161.4,17.8,161.7,18.1,162,18.1z"/>
		<path style="fill:#1B3E90;" d="M160.5,15.4c0.3,0,0.6-0.2,0.6-0.5c0-0.3-0.3-0.5-0.6-0.5c-0.3,0-0.6,0.2-0.6,0.5
			C159.9,15.2,160.1,15.4,160.5,15.4z"/>
		<path style="fill:#1B3E90;" d="M160.5,13.7c0.3,0,0.5-0.2,0.6-0.5h-1.1C159.9,13.5,160.1,13.7,160.5,13.7z"/>
		<path style="fill:#1B3E90;" d="M162,14.6c0.3,0,0.6-0.2,0.6-0.5c0-0.3-0.3-0.5-0.6-0.5c-0.3,0-0.6,0.2-0.6,0.5
			C161.4,14.3,161.7,14.6,162,14.6z"/>
		<path style="fill:#1B3E90;" d="M162,16.3c0.3,0,0.6-0.2,0.6-0.5c0-0.3-0.3-0.5-0.6-0.5c-0.3,0-0.6,0.2-0.6,0.5
			C161.4,16.1,161.7,16.3,162,16.3z"/>
		<path style="fill:#1B3E90;" d="M158.9,16.3c0.3,0,0.6-0.2,0.6-0.5c0-0.3-0.3-0.5-0.6-0.5c-0.3,0-0.6,0.2-0.6,0.5
			C158.4,16.1,158.6,16.3,158.9,16.3z"/>
		<path style="fill:#1B3E90;" d="M157.4,13.7c0.3,0,0.5-0.2,0.6-0.5h-1.1C156.9,13.5,157.1,13.7,157.4,13.7z"/>
		<path style="fill:#1B3E90;" d="M158.9,18.1c0.3,0,0.6-0.2,0.6-0.5c0-0.3-0.3-0.5-0.6-0.5c-0.3,0-0.6,0.2-0.6,0.5
			C158.4,17.8,158.6,18.1,158.9,18.1z"/>
		<path style="fill:#1B3E90;" d="M160.5,17.2c0.3,0,0.6-0.2,0.6-0.5c0-0.3-0.3-0.5-0.6-0.5c-0.3,0-0.6,0.2-0.6,0.5
			C159.9,17,160.1,17.2,160.5,17.2z"/>
		<path style="fill:#1B3E90;" d="M157.4,15.4c0.3,0,0.6-0.2,0.6-0.5c0-0.3-0.3-0.5-0.6-0.5c-0.3,0-0.6,0.2-0.6,0.5
			C156.8,15.2,157.1,15.4,157.4,15.4z"/>
		<path style="fill:#1B3E90;" d="M158.9,14.6c0.3,0,0.6-0.2,0.6-0.5c0-0.3-0.3-0.5-0.6-0.5c-0.3,0-0.6,0.2-0.6,0.5
			C158.4,14.3,158.6,14.6,158.9,14.6z"/>
		<path style="fill:#1B3E90;" d="M155.9,17c-0.3,0-0.6,0.2-0.6,0.5c0,0.3,0.3,0.5,0.6,0.5c0.3,0,0.6-0.2,0.6-0.5
			C156.4,17.3,156.2,17,155.9,17z"/>
		<path style="fill:#1B3E90;" d="M172.7,21.4c-0.3,0-0.6,0.2-0.6,0.5c0,0.3,0.3,0.5,0.6,0.5c0.3,0,0.6-0.2,0.6-0.5
			C173.2,21.6,173,21.4,172.7,21.4z"/>
		<path style="fill:#1B3E90;" d="M172.7,23.2c-0.3,0-0.6,0.2-0.6,0.5c0,0.3,0.3,0.5,0.6,0.5c0.3,0,0.6-0.2,0.6-0.5
			C173.2,23.4,173,23.2,172.7,23.2z"/>
		<path style="fill:#1B3E90;" d="M172.7,24.9c-0.3,0-0.6,0.2-0.6,0.5c0,0.3,0.3,0.5,0.6,0.5c0.3,0,0.6-0.2,0.6-0.5
			C173.2,25.2,173,24.9,172.7,24.9z"/>
		<path style="fill:#1B3E90;" d="M172.7,26.7c-0.3,0-0.6,0.2-0.6,0.5c0,0.3,0.3,0.5,0.6,0.5c0.3,0,0.6-0.2,0.6-0.5
			C173.2,26.9,173,26.7,172.7,26.7z"/>
		<path style="fill:#1B3E90;" d="M172.7,28.4c-0.3,0-0.6,0.2-0.6,0.5c0,0.3,0.3,0.5,0.6,0.5c0.3,0,0.6-0.2,0.6-0.5
			C173.2,28.7,173,28.4,172.7,28.4z"/>
		<path style="fill:#1B3E90;" d="M172.7,30.2c-0.3,0-0.6,0.2-0.6,0.5c0,0.3,0.3,0.5,0.6,0.5c0.3,0,0.6-0.2,0.6-0.5
			C173.2,30.4,173,30.2,172.7,30.2z"/>
		<path style="fill:#1B3E90;" d="M174.2,29.3c-0.3,0-0.6,0.2-0.6,0.5c0,0.3,0.3,0.5,0.6,0.5c0.3,0,0.6-0.2,0.6-0.5
			C174.8,29.5,174.5,29.3,174.2,29.3z"/>
		<path style="fill:#1B3E90;" d="M173.6,31.6c0,0.1,0,0.2,0.1,0.2c0.3-0.2,0.5-0.5,0.7-0.7c-0.1,0-0.1,0-0.2,0
			C173.9,31.1,173.6,31.3,173.6,31.6z"/>
		<path style="fill:#1B3E90;" d="M172.7,14.4c-0.3,0-0.6,0.2-0.6,0.5c0,0.3,0.3,0.5,0.6,0.5c0.3,0,0.6-0.2,0.6-0.5
			C173.2,14.6,173,14.4,172.7,14.4z"/>
		<path style="fill:#1B3E90;" d="M172.7,17.9c-0.3,0-0.6,0.2-0.6,0.5c0,0.3,0.3,0.5,0.6,0.5c0.3,0,0.6-0.2,0.6-0.5
			C173.2,18.1,173,17.9,172.7,17.9z"/>
		<path style="fill:#1B3E90;" d="M172.7,16.1c-0.3,0-0.6,0.2-0.6,0.5c0,0.3,0.3,0.5,0.6,0.5c0.3,0,0.6-0.2,0.6-0.5
			C173.2,16.4,173,16.1,172.7,16.1z"/>
		<path style="fill:#1B3E90;" d="M172.7,19.7c-0.3,0-0.6,0.2-0.6,0.5c0,0.3,0.3,0.5,0.6,0.5c0.3,0,0.6-0.2,0.6-0.5
			C173.2,19.9,173,19.7,172.7,19.7z"/>
		<path style="fill:#1B3E90;" d="M171.2,24c-0.3,0-0.6,0.2-0.6,0.5c0,0.3,0.3,0.5,0.6,0.5c0.3,0,0.6-0.2,0.6-0.5
			C171.7,24.3,171.5,24,171.2,24z"/>
		<path style="fill:#1B3E90;" d="M171.2,25.8c-0.3,0-0.6,0.2-0.6,0.5c0,0.3,0.3,0.5,0.6,0.5c0.3,0,0.6-0.2,0.6-0.5
			C171.7,26,171.5,25.8,171.2,25.8z"/>
		<path style="fill:#1B3E90;" d="M171.2,27.6c-0.3,0-0.6,0.2-0.6,0.5c0,0.3,0.3,0.5,0.6,0.5c0.3,0,0.6-0.2,0.6-0.5
			C171.7,27.8,171.5,27.6,171.2,27.6z"/>
		<path style="fill:#1B3E90;" d="M171.2,22.3c-0.3,0-0.6,0.2-0.6,0.5c0,0.3,0.3,0.5,0.6,0.5c0.3,0,0.6-0.2,0.6-0.5
			C171.7,22.5,171.5,22.3,171.2,22.3z"/>
		<path style="fill:#1B3E90;" d="M171.2,29.3c-0.3,0-0.6,0.2-0.6,0.5c0,0.3,0.3,0.5,0.6,0.5c0.3,0,0.6-0.2,0.6-0.5
			C171.7,29.5,171.5,29.3,171.2,29.3z"/>
		<path style="fill:#1B3E90;" d="M171.2,20.5c-0.3,0-0.6,0.2-0.6,0.5c0,0.3,0.3,0.5,0.6,0.5c0.3,0,0.6-0.2,0.6-0.5
			C171.7,20.8,171.5,20.5,171.2,20.5z"/>
		<path style="fill:#1B3E90;" d="M172.7,31.9c-0.3,0-0.6,0.2-0.6,0.5c0,0.1,0.1,0.3,0.2,0.4c0.3-0.2,0.6-0.4,0.9-0.6
			C173.1,32.1,172.9,31.9,172.7,31.9z"/>
		<path style="fill:#1B3E90;" d="M171.2,15.3c-0.3,0-0.6,0.2-0.6,0.5c0,0.3,0.3,0.5,0.6,0.5c0.3,0,0.6-0.2,0.6-0.5
			C171.7,15.5,171.5,15.3,171.2,15.3z"/>
		<path style="fill:#1B3E90;" d="M171.2,13.5c-0.3,0-0.6,0.2-0.6,0.5c0,0.3,0.3,0.5,0.6,0.5c0.3,0,0.6-0.2,0.6-0.5
			C171.7,13.7,171.5,13.5,171.2,13.5z"/>
		<path style="fill:#1B3E90;" d="M171.2,17c-0.3,0-0.6,0.2-0.6,0.5c0,0.3,0.3,0.5,0.6,0.5c0.3,0,0.6-0.2,0.6-0.5
			C171.7,17.3,171.5,17,171.2,17z"/>
		<path style="fill:#1B3E90;" d="M171.2,18.8c-0.3,0-0.6,0.2-0.6,0.5c0,0.3,0.3,0.5,0.6,0.5c0.3,0,0.6-0.2,0.6-0.5
			C171.7,19,171.5,18.8,171.2,18.8z"/>
		<path style="fill:#1B3E90;" d="M176.7,19.4v-0.2c0,0,0,0.1,0,0.1C176.7,19.3,176.7,19.4,176.7,19.4z"/>
		<path style="fill:#1B3E90;" d="M175.7,14.4c-0.3,0-0.6,0.2-0.6,0.5c0,0.3,0.3,0.5,0.6,0.5c0.3,0,0.6-0.2,0.6-0.5c0,0,0,0,0,0
			c0-0.1-0.1-0.2-0.1-0.3C176.1,14.5,175.9,14.4,175.7,14.4z"/>
		<path style="fill:#1B3E90;" d="M175.7,16.1c-0.3,0-0.6,0.2-0.6,0.5c0,0.3,0.3,0.5,0.6,0.5c0.3,0,0.6-0.2,0.6-0.5
			C176.3,16.4,176,16.1,175.7,16.1z"/>
		<path style="fill:#1B3E90;" d="M155.9,20.5c-0.3,0-0.6,0.2-0.6,0.5c0,0.3,0.3,0.5,0.6,0.5c0.3,0,0.6-0.2,0.6-0.5
			C156.4,20.8,156.2,20.5,155.9,20.5z"/>
		<path style="fill:#1B3E90;" d="M175.7,21.4c-0.3,0-0.6,0.2-0.6,0.5c0,0.3,0.3,0.5,0.6,0.5c0.3,0,0.6-0.2,0.6-0.5
			C176.3,21.6,176,21.4,175.7,21.4z"/>
		<path style="fill:#1B3E90;" d="M175.7,19.7c-0.3,0-0.6,0.2-0.6,0.5c0,0.3,0.3,0.5,0.6,0.5c0.3,0,0.6-0.2,0.6-0.5
			C176.3,19.9,176,19.7,175.7,19.7z"/>
		<path style="fill:#1B3E90;" d="M176.7,24.7v-0.2c0,0,0,0.1,0,0.1C176.7,24.6,176.7,24.6,176.7,24.7z"/>
		<path style="fill:#1B3E90;" d="M175.7,23.2c-0.3,0-0.6,0.2-0.6,0.5c0,0.3,0.3,0.5,0.6,0.5c0.3,0,0.6-0.2,0.6-0.5
			C176.3,23.4,176,23.2,175.7,23.2z"/>
		<path style="fill:#1B3E90;" d="M171.2,31.1c-0.3,0-0.6,0.2-0.6,0.5c0,0.3,0.3,0.5,0.6,0.5c0.3,0,0.6-0.2,0.6-0.5
			C171.7,31.3,171.5,31.1,171.2,31.1z"/>
		<path style="fill:#1B3E90;" d="M176.7,17.5c0,0,0,0.1,0,0.1v-0.2C176.7,17.5,176.7,17.5,176.7,17.5z"/>
		<path style="fill:#1B3E90;" d="M176.7,22.9v-0.2c0,0,0,0.1,0,0.1C176.7,22.9,176.7,22.9,176.7,22.9z"/>
		<path style="fill:#1B3E90;" d="M176.7,21.2V21c0,0,0,0.1,0,0.1C176.7,21.1,176.7,21.1,176.7,21.2z"/>
		<path style="fill:#1B3E90;" d="M174.2,25.8c-0.3,0-0.6,0.2-0.6,0.5c0,0.3,0.3,0.5,0.6,0.5c0.3,0,0.6-0.2,0.6-0.5
			C174.8,26,174.5,25.8,174.2,25.8z"/>
		<path style="fill:#1B3E90;" d="M174.2,22.3c-0.3,0-0.6,0.2-0.6,0.5c0,0.3,0.3,0.5,0.6,0.5c0.3,0,0.6-0.2,0.6-0.5
			C174.8,22.5,174.5,22.3,174.2,22.3z"/>
		<path style="fill:#1B3E90;" d="M174.2,18.8c-0.3,0-0.6,0.2-0.6,0.5c0,0.3,0.3,0.5,0.6,0.5c0.3,0,0.6-0.2,0.6-0.5
			C174.8,19,174.5,18.8,174.2,18.8z"/>
		<path style="fill:#1B3E90;" d="M175.7,24.9c-0.3,0-0.6,0.2-0.6,0.5c0,0.3,0.3,0.5,0.6,0.5c0.3,0,0.6-0.2,0.6-0.5
			C176.3,25.2,176,24.9,175.7,24.9z"/>
		<path style="fill:#1B3E90;" d="M174.2,24c-0.3,0-0.6,0.2-0.6,0.5c0,0.3,0.3,0.5,0.6,0.5c0.3,0,0.6-0.2,0.6-0.5
			C174.8,24.3,174.5,24,174.2,24z"/>
		<path style="fill:#1B3E90;" d="M174.2,27.6c-0.3,0-0.6,0.2-0.6,0.5c0,0.3,0.3,0.5,0.6,0.5c0.3,0,0.6-0.2,0.6-0.5
			C174.8,27.8,174.5,27.6,174.2,27.6z"/>
		<path style="fill:#1B3E90;" d="M174.2,20.5c-0.3,0-0.6,0.2-0.6,0.5c0,0.3,0.3,0.5,0.6,0.5c0.3,0,0.6-0.2,0.6-0.5
			C174.8,20.8,174.5,20.5,174.2,20.5z"/>
		<path style="fill:#1B3E90;" d="M175.2,29c0,0.3,0.2,0.5,0.5,0.5c0.2-0.3,0.3-0.6,0.5-0.9c-0.1-0.1-0.2-0.1-0.4-0.1
			C175.4,28.4,175.2,28.7,175.2,29z"/>
		<path style="fill:#1B3E90;" d="M175.7,26.7c-0.3,0-0.6,0.2-0.6,0.5c0,0.3,0.3,0.5,0.6,0.5c0.3,0,0.6-0.2,0.6-0.5
			C176.3,26.9,176,26.7,175.7,26.7z"/>
		<path style="fill:#1B3E90;" d="M174.2,13.5c-0.3,0-0.6,0.2-0.6,0.5c0,0.3,0.3,0.5,0.6,0.5c0.3,0,0.6-0.2,0.6-0.5
			c0-0.2-0.1-0.3-0.2-0.4C174.5,13.6,174.3,13.6,174.2,13.5z"/>
		<path style="fill:#1B3E90;" d="M174.2,17c-0.3,0-0.6,0.2-0.6,0.5c0,0.3,0.3,0.5,0.6,0.5c0.3,0,0.6-0.2,0.6-0.5
			C174.8,17.3,174.5,17,174.2,17z"/>
		<path style="fill:#1B3E90;" d="M174.2,15.3c-0.3,0-0.6,0.2-0.6,0.5c0,0.3,0.3,0.5,0.6,0.5c0.3,0,0.6-0.2,0.6-0.5
			C174.8,15.5,174.5,15.3,174.2,15.3z"/>
		<path style="fill:#1B3E90;" d="M175.7,17.9c-0.3,0-0.6,0.2-0.6,0.5c0,0.3,0.3,0.5,0.6,0.5c0.3,0,0.6-0.2,0.6-0.5
			C176.3,18.1,176,17.9,175.7,17.9z"/>
		<path style="fill:#1B3E90;" d="M160.5,31.9c-0.3,0-0.6,0.2-0.6,0.5c0,0.3,0.3,0.5,0.6,0.5c0.3,0,0.6-0.2,0.6-0.5
			C161,32.2,160.8,31.9,160.5,31.9z"/>
		<path style="fill:#1B3E90;" d="M160.5,30.2c-0.3,0-0.6,0.2-0.6,0.5c0,0.3,0.3,0.5,0.6,0.5c0.3,0,0.6-0.2,0.6-0.5
			C161,30.4,160.8,30.2,160.5,30.2z"/>
		<path style="fill:#1B3E90;" d="M158.9,27.6c-0.3,0-0.6,0.2-0.6,0.5c0,0.3,0.2,0.5,0.6,0.5c0.3,0,0.6-0.2,0.6-0.5
			C159.5,27.8,159.2,27.6,158.9,27.6z"/>
		<path style="fill:#1B3E90;" d="M160.5,28.4c-0.3,0-0.6,0.2-0.6,0.5c0,0.3,0.3,0.5,0.6,0.5c0.3,0,0.6-0.2,0.6-0.5
			C161,28.7,160.8,28.4,160.5,28.4z"/>
		<path style="fill:#1B3E90;" d="M160.5,33.7c-0.3,0-0.5,0.2-0.6,0.4h1.1C160.9,33.9,160.7,33.7,160.5,33.7z"/>
		<path style="fill:#1B3E90;" d="M162,32.8c-0.3,0-0.6,0.2-0.6,0.5c0,0.3,0.3,0.5,0.6,0.5c0.3,0,0.6-0.2,0.6-0.5
			C162.5,33.1,162.3,32.8,162,32.8z"/>
		<path style="fill:#1B3E90;" d="M158.9,29.3c-0.3,0-0.6,0.2-0.6,0.5c0,0.3,0.2,0.5,0.6,0.5c0.3,0,0.6-0.2,0.6-0.5
			C159.5,29.5,159.2,29.3,158.9,29.3z"/>
		<path style="fill:#1B3E90;" d="M163.5,31.9c-0.3,0-0.6,0.2-0.6,0.5c0,0.3,0.3,0.5,0.6,0.5c0.3,0,0.6-0.2,0.6-0.5
			C164.1,32.2,163.8,31.9,163.5,31.9z"/>
		<path style="fill:#1B3E90;" d="M163.5,33.7c-0.3,0-0.5,0.2-0.6,0.4h1.1C164,33.9,163.8,33.7,163.5,33.7z"/>
		<path style="fill:#1B3E90;" d="M162,29.3c-0.3,0-0.6,0.2-0.6,0.5c0,0.3,0.3,0.5,0.6,0.5c0.3,0,0.6-0.2,0.6-0.5
			C162.5,29.5,162.3,29.3,162,29.3z"/>
		<path style="fill:#1B3E90;" d="M162,31.1c-0.3,0-0.6,0.2-0.6,0.5c0,0.3,0.3,0.5,0.6,0.5c0.3,0,0.6-0.2,0.6-0.5
			C162.5,31.3,162.3,31.1,162,31.1z"/>
		<path style="fill:#1B3E90;" d="M157.4,33.7c-0.3,0-0.5,0.2-0.6,0.4h1.1C157.9,33.9,157.7,33.7,157.4,33.7z"/>
		<path style="fill:#1B3E90;" d="M171.2,32.8c-0.3,0-0.6,0.2-0.6,0.5c0,0.1,0,0.2,0.1,0.2c0.4-0.1,0.7-0.3,1-0.4
			C171.6,33,171.4,32.8,171.2,32.8z"/>
		<path style="fill:#1B3E90;" d="M163.5,30.2c-0.3,0-0.6,0.2-0.6,0.5c0,0.3,0.3,0.5,0.6,0.5c0.3,0,0.6-0.2,0.6-0.5
			C164.1,30.4,163.8,30.2,163.5,30.2z"/>
		<path style="fill:#1B3E90;" d="M157.4,31.9c-0.3,0-0.6,0.2-0.6,0.5c0,0.3,0.2,0.5,0.6,0.5c0.3,0,0.6-0.2,0.6-0.5
			C158,32.2,157.7,31.9,157.4,31.9z"/>
		<path style="fill:#1B3E90;" d="M155.9,15.3c-0.3,0-0.6,0.2-0.6,0.5c0,0.3,0.3,0.5,0.6,0.5c0.3,0,0.6-0.2,0.6-0.5
			C156.4,15.5,156.2,15.3,155.9,15.3z"/>
		<path style="fill:#1B3E90;" d="M158.9,31.1c-0.3,0-0.6,0.2-0.6,0.5c0,0.3,0.2,0.5,0.6,0.5c0.3,0,0.6-0.2,0.6-0.5
			C159.5,31.3,159.2,31.1,158.9,31.1z"/>
		<path style="fill:#1B3E90;" d="M155.9,18.8c-0.3,0-0.6,0.2-0.6,0.5c0,0.3,0.3,0.5,0.6,0.5c0.3,0,0.6-0.2,0.6-0.5
			C156.4,19,156.2,18.8,155.9,18.8z"/>
		<path style="fill:#1B3E90;" d="M158.9,32.8c-0.3,0-0.6,0.2-0.6,0.5c0,0.3,0.2,0.5,0.6,0.5c0.3,0,0.6-0.2,0.6-0.5
			C159.5,33.1,159.2,32.8,158.9,32.8z"/>
		<path style="fill:#1B3E90;" d="M157.4,30.2c-0.3,0-0.6,0.2-0.6,0.5c0,0.3,0.2,0.5,0.6,0.5c0.3,0,0.6-0.2,0.6-0.5
			C158,30.4,157.7,30.2,157.4,30.2z"/>
		<path style="fill:#1B3E90;" d="M157.4,24.9C157.4,24.9,157.4,24.9,157.4,24.9c-0.3,0-0.6,0.2-0.6,0.5c0,0.3,0.2,0.5,0.6,0.5
			c0.3,0,0.6-0.2,0.6-0.5c0,0,0-0.1,0-0.1L157.4,24.9z"/>
		<path style="fill:#1B3E90;" d="M157.4,28.4c-0.3,0-0.6,0.2-0.6,0.5c0,0.3,0.2,0.5,0.6,0.5c0.3,0,0.6-0.2,0.6-0.5
			C158,28.7,157.7,28.4,157.4,28.4z"/>
		<path style="fill:#1B3E90;" d="M157.4,26.7c-0.3,0-0.6,0.2-0.6,0.5c0,0.3,0.2,0.5,0.6,0.5c0.3,0,0.6-0.2,0.6-0.5
			C158,26.9,157.7,26.7,157.4,26.7z"/>
		<path style="fill:#1B3E90;" d="M155.9,13.5c-0.3,0-0.6,0.2-0.6,0.5c0,0.3,0.3,0.5,0.6,0.5c0.3,0,0.6-0.2,0.6-0.5
			C156.4,13.7,156.2,13.5,155.9,13.5z"/>
		<path style="fill:#1B3E90;" d="M169.7,25v1c0.3-0.1,0.4-0.3,0.4-0.5C170.2,25.2,170,25,169.7,25z"/>
		<path style="fill:#1B3E90;" d="M169.6,23.2c-0.3,0-0.6,0.2-0.6,0.5c0,0,0,0.1,0,0.1l0.3,0.4c0.1,0,0.1,0,0.2,0
			c0.3,0,0.6-0.2,0.6-0.5C170.2,23.4,169.9,23.2,169.6,23.2z"/>
		<ellipse style="fill:#1B3E90;" cx="169.6" cy="21.9" rx="0.6" ry="0.5"/>
		<path style="fill:#1B3E90;" d="M169.7,28.5v1c0.3-0.1,0.4-0.3,0.4-0.5C170.2,28.7,170,28.5,169.7,28.5z"/>
		<path style="fill:#1B3E90;" d="M169.7,26.7v1c0.3-0.1,0.4-0.3,0.4-0.5C170.2,27,170,26.8,169.7,26.7z"/>
		<path style="fill:#1B3E90;" d="M169.6,19.7c-0.3,0-0.6,0.2-0.6,0.5c0,0.3,0.2,0.5,0.6,0.5c0.3,0,0.6-0.2,0.6-0.5
			C170.2,19.9,169.9,19.7,169.6,19.7z"/>
		<path style="fill:#1B3E90;" d="M169.6,13.7c0.3,0,0.5-0.2,0.6-0.5h-1.1C169.1,13.5,169.3,13.7,169.6,13.7z"/>
		<path style="fill:#1B3E90;" d="M169.6,14.4c-0.3,0-0.6,0.2-0.6,0.5c0,0.3,0.2,0.5,0.6,0.5c0.3,0,0.6-0.2,0.6-0.5
			C170.2,14.6,169.9,14.4,169.6,14.4z"/>
		<path style="fill:#1B3E90;" d="M169.6,16.1c-0.3,0-0.6,0.2-0.6,0.5c0,0.3,0.2,0.5,0.6,0.5c0.3,0,0.6-0.2,0.6-0.5
			C170.2,16.4,169.9,16.1,169.6,16.1z"/>
		<path style="fill:#1B3E90;" d="M169.6,30.2c-0.3,0-0.6,0.2-0.6,0.5c0,0.3,0.2,0.5,0.6,0.5c0.3,0,0.6-0.2,0.6-0.5
			C170.2,30.4,169.9,30.2,169.6,30.2z"/>
		<ellipse style="fill:#1B3E90;" cx="169.6" cy="18.4" rx="0.6" ry="0.5"/>
		<path style="fill:#1B3E90;" d="M166.6,31.9c-0.3,0-0.6,0.2-0.6,0.5c0,0.3,0.3,0.5,0.6,0.5c0.3,0,0.6-0.2,0.6-0.5
			C167.1,32.2,166.9,31.9,166.6,31.9z"/>
		<path style="fill:#1B3E90;" d="M165,32.8c-0.3,0-0.6,0.2-0.6,0.5c0,0.3,0.3,0.5,0.6,0.5c0.3,0,0.6-0.2,0.6-0.5
			C165.6,33.1,165.4,32.8,165,32.8z"/>
		<path style="fill:#1B3E90;" d="M166.6,33.7c-0.3,0-0.5,0.2-0.6,0.4h1.1C167.1,33.9,166.8,33.7,166.6,33.7z"/>
		<path style="fill:#1B3E90;" d="M165,31.1c-0.3,0-0.6,0.2-0.6,0.5c0,0.3,0.3,0.5,0.6,0.5c0.3,0,0.6-0.2,0.6-0.5
			C165.6,31.3,165.4,31.1,165,31.1z"/>
		<path style="fill:#1B3E90;" d="M166.6,30.2c-0.3,0-0.6,0.2-0.6,0.5c0,0.3,0.3,0.5,0.6,0.5c0.3,0,0.6-0.2,0.6-0.5
			C167.1,30.4,166.9,30.2,166.6,30.2z"/>
		<path style="fill:#1B3E90;" d="M164.5,29.7c0,0,0,0.1,0,0.2c0,0.3,0.3,0.5,0.6,0.5c0.3,0,0.6-0.2,0.6-0.5c0-0.1,0-0.1,0-0.2H164.5
			z"/>
		<path style="fill:#1B3E90;" d="M167.6,29.7c0,0,0,0.1,0,0.2c0,0.3,0.3,0.5,0.6,0.5c0.3,0,0.6-0.2,0.6-0.5c0-0.1,0-0.1,0-0.2H167.6
			z"/>
		<path style="fill:#1B3E90;" d="M169.6,31.9c-0.3,0-0.6,0.2-0.6,0.5c0,0.3,0.2,0.5,0.6,0.5c0.3,0,0.6-0.2,0.6-0.5
			C170.2,32.2,169.9,31.9,169.6,31.9z"/>
		<path style="fill:#1B3E90;" d="M169.1,34c0.3,0,0.5-0.1,0.8-0.2c-0.1-0.1-0.2-0.1-0.3-0.1C169.4,33.7,169.2,33.8,169.1,34z"/>
		<path style="fill:#1B3E90;" d="M168.1,31.1c-0.3,0-0.6,0.2-0.6,0.5c0,0.3,0.3,0.5,0.6,0.5c0.3,0,0.6-0.2,0.6-0.5
			C168.7,31.3,168.4,31.1,168.1,31.1z"/>
		<path style="fill:#1B3E90;" d="M168.1,32.8c-0.3,0-0.6,0.2-0.6,0.5c0,0.3,0.3,0.5,0.6,0.5c0.3,0,0.6-0.2,0.6-0.5
			C168.7,33.1,168.4,32.8,168.1,32.8z"/>
	</g>
</g>
</svg>
